<svg width="48" height="32" viewBox="0 0 48 32" fill="none" xmlns="http://www.w3.org/2000/svg">
<path fill-rule="evenodd" clip-rule="evenodd" d="M3.24536 28.8687L5.04136 22.312C3.93336 20.3933 3.35069 18.216 3.35136 15.986C3.35469 9.00933 9.03203 3.33333 16.0094 3.33333C19.3954 3.33467 22.5727 4.65267 24.9627 7.044C27.352 9.436 28.668 12.6147 28.6667 15.996C28.664 22.9727 22.9854 28.6493 16.0094 28.6493C16.0087 28.6493 16.0094 28.6493 16.0094 28.6493H16.004C13.886 28.6487 11.804 28.1173 9.95536 27.1087L3.24536 28.8687Z" fill="white"/>
<path fill-rule="evenodd" clip-rule="evenodd" d="M3.2454 29.202C3.1574 29.202 3.07206 29.1673 3.00873 29.1033C2.9254 29.0187 2.89273 28.8953 2.92406 28.7813L4.6834 22.3573C3.59273 20.42 3.0174 18.22 3.01873 15.9867C3.0214 8.82533 8.84873 3 16.0094 3C19.4827 3.00133 22.7461 4.354 25.1987 6.80867C27.6514 9.264 29.0014 12.5267 29.0001 15.996C28.9974 23.1567 23.1694 28.9827 16.0094 28.9827C13.8834 28.982 11.7801 28.4573 9.9134 27.4647L3.33006 29.1907C3.30206 29.1987 3.27406 29.202 3.2454 29.202Z" fill="white"/>
<path fill-rule="evenodd" clip-rule="evenodd" d="M16.0093 3.33333C19.3953 3.33467 22.5726 4.65267 24.9626 7.044C27.352 9.436 28.668 12.6147 28.6666 15.996C28.664 22.9727 22.9853 28.6493 16.0093 28.6493H16.004C13.886 28.6487 11.804 28.1173 9.95531 27.1087L3.24531 28.8687L5.04131 22.312C3.93331 20.3933 3.35064 18.216 3.35131 15.986C3.35464 9.00933 9.03198 3.33333 16.0093 3.33333ZM16.0093 2.66667C8.66531 2.66667 2.68798 8.64133 2.68464 15.986C2.68398 18.2307 3.25064 20.4427 4.32531 22.4007L2.60198 28.6933C2.53931 28.9233 2.60331 29.1687 2.77131 29.338C2.89798 29.466 3.06931 29.536 3.24531 29.536C3.30198 29.536 3.35864 29.5287 3.41464 29.514L9.87264 27.8207C11.758 28.7993 13.8713 29.316 16.004 29.3167C23.3533 29.3167 29.3306 23.3413 29.334 15.9967C29.3353 12.4373 27.9506 9.09067 25.4353 6.57333C22.9186 4.05533 19.5713 2.668 16.0093 2.66667Z" fill="#CFD8DC"/>
<path fill-rule="evenodd" clip-rule="evenodd" d="M23.4507 8.55466C21.464 6.56666 18.8234 5.47133 16.0127 5.47066C10.21 5.47066 5.4907 10.188 5.48804 15.9867C5.48737 17.974 6.04337 19.9087 7.0967 21.584L7.34737 21.982L6.28404 25.8627L10.266 24.8187L10.6507 25.0467C12.2654 26.0053 14.1174 26.512 16.0054 26.5127H16.0094C21.808 26.5127 26.5274 21.7947 26.5294 15.9953C26.53 13.1853 25.4374 10.5427 23.4507 8.55466Z" fill="#40C351"/>
<path fill-rule="evenodd" clip-rule="evenodd" d="M12.8453 10.6967C12.6087 10.17 12.3593 10.1593 12.1333 10.15C11.9487 10.142 11.738 10.1427 11.5273 10.1427C11.3167 10.1427 10.974 10.222 10.684 10.5387C10.394 10.8553 9.57666 11.62 9.57666 13.176C9.57666 14.732 10.71 16.236 10.868 16.4467C11.026 16.6573 13.056 19.9527 16.2707 21.2207C18.942 22.274 19.486 22.0647 20.066 22.012C20.646 21.9593 21.9373 21.2473 22.2007 20.5087C22.464 19.77 22.464 19.1373 22.3853 19.0053C22.306 18.8733 22.0953 18.7947 21.7793 18.636C21.4633 18.4773 19.908 17.7127 19.618 17.6073C19.328 17.502 19.1173 17.4493 18.906 17.766C18.6953 18.082 18.0893 18.7947 17.9047 19.0053C17.72 19.2167 17.5353 19.2433 17.2193 19.0847C16.9033 18.926 15.8847 18.5927 14.676 17.5153C13.736 16.6773 13.1013 15.642 12.9167 15.3253C12.732 15.0093 12.8967 14.838 13.0553 14.68C13.1973 14.538 13.3713 14.3107 13.53 14.126C13.688 13.9413 13.7407 13.8093 13.846 13.5987C13.9513 13.3873 13.8987 13.2027 13.8193 13.0447C13.7413 12.886 13.1267 11.322 12.8453 10.6967Z" fill="white"/>
<path d="M32.0001 2.66667C28.4639 2.66667 25.0725 4.07143 22.572 6.57191C20.0715 9.0724 18.6667 12.4638 18.6667 16C18.6667 19.5362 20.0715 22.9276 22.572 25.4281C25.0725 27.9286 28.4639 29.3333 32.0001 29.3333C35.5363 29.3333 38.9277 27.9286 41.4282 25.4281C43.9287 22.9276 45.3334 19.5362 45.3334 16C45.3334 12.4638 43.9287 9.0724 41.4282 6.57191C38.9277 4.07143 35.5363 2.66667 32.0001 2.66667V2.66667Z" fill="#29B6F6"/>
<path d="M38.6334 10L36.1361 22.7507C36.1361 22.7507 36.0287 23.3333 35.3061 23.3333C34.9221 23.3333 34.7241 23.1507 34.7241 23.1507L29.3147 18.662L26.6681 17.328L23.2714 16.4247C23.2714 16.4247 22.6667 16.25 22.6667 15.75C22.6667 15.3333 23.2887 15.1347 23.2887 15.1347L37.4994 9.48933C37.4987 9.48867 37.9334 9.33267 38.2501 9.33333C38.4447 9.33333 38.6667 9.41667 38.6667 9.66667C38.6667 9.83333 38.6334 10 38.6334 10Z" fill="white"/>
<path d="M31.3334 20.3367L29.0494 22.586C29.0494 22.586 28.9501 22.6627 28.8174 22.666C28.7714 22.6673 28.7221 22.66 28.6714 22.6373L29.3141 18.6607L31.3334 20.3367Z" fill="#B0BEC5"/>
<path d="M35.9314 12.1307C35.8187 11.984 35.6107 11.9573 35.4641 12.0687L26.6667 17.3333C26.6667 17.3333 28.0707 21.2613 28.2847 21.9413C28.4994 22.622 28.6714 22.638 28.6714 22.638L29.3141 18.6613L35.8687 12.5973C36.0154 12.486 36.0427 12.2773 35.9314 12.1307Z" fill="#CFD8DC"/>
</svg>
