<svg width="171" height="32" viewBox="0 0 171 32" fill="none" xmlns="http://www.w3.org/2000/svg">
<path d="M16.6562 17.4219C16.6562 18.276 16.4792 19.0521 16.125 19.75C15.7708 20.4375 15.2969 21.0312 14.7031 21.5312C14.1094 22.0312 13.4271 22.4167 12.6562 22.6875C11.8854 22.9583 11.0833 23.0938 10.25 23.0938C9.10417 23.0938 8.05208 22.8802 7.09375 22.4531C6.13542 22.026 5.375 21.3958 4.8125 20.5625V22.7344H3V16.5312H4.8125C4.8125 17.2292 4.97396 17.8698 5.29688 18.4531C5.61979 19.026 6.03125 19.5208 6.53125 19.9375C7.03125 20.3542 7.60417 20.6823 8.25 20.9219C8.90625 21.151 9.57292 21.2656 10.25 21.2656C10.8542 21.2656 11.4115 21.1823 11.9219 21.0156C12.4323 20.8385 12.8802 20.5938 13.2656 20.2812C13.651 19.9583 13.9531 19.5677 14.1719 19.1094C14.401 18.651 14.5156 18.1302 14.5156 17.5469C14.5156 16.8906 14.3698 16.3281 14.0781 15.8594C13.7969 15.3906 13.4115 14.9896 12.9219 14.6562C12.4427 14.3229 11.901 14.0417 11.2969 13.8125C10.6927 13.5729 10.0781 13.3385 9.45312 13.1094C8.71354 12.849 7.97396 12.5781 7.23438 12.2969C6.49479 12.0052 5.83333 11.6406 5.25 11.2031C4.66667 10.7656 4.19271 10.2344 3.82812 9.60938C3.46354 8.97396 3.28125 8.1875 3.28125 7.25C3.28125 6.41667 3.45833 5.67708 3.8125 5.03125C4.16667 4.375 4.63021 3.82292 5.20312 3.375C5.77604 2.92708 6.44271 2.58854 7.20312 2.35938C7.96354 2.11979 8.74479 2 9.54688 2C10.5365 2 11.4479 2.20312 12.2812 2.60938C13.125 3.01562 13.7812 3.63542 14.25 4.46875V2.34375H16.1406V8.17188H14.25C14.25 7.55729 14.1198 6.98438 13.8594 6.45312C13.6094 5.91146 13.2656 5.45312 12.8281 5.07812C12.3906 4.69271 11.8906 4.39062 11.3281 4.17188C10.7656 3.94271 10.1719 3.82812 9.54688 3.82812C8.99479 3.82812 8.46875 3.89062 7.96875 4.01562C7.46875 4.14062 7.03125 4.34375 6.65625 4.625C6.28125 4.89583 5.97917 5.25 5.75 5.6875C5.53125 6.125 5.42188 6.64583 5.42188 7.25C5.42188 7.78125 5.55208 8.23438 5.8125 8.60938C6.08333 8.98438 6.44271 9.31771 6.89062 9.60938C7.33854 9.89062 7.85417 10.151 8.4375 10.3906C9.03125 10.6198 9.63542 10.8542 10.25 11.0938C11.0208 11.3646 11.7865 11.6667 12.5469 12C13.3073 12.3333 13.9896 12.7344 14.5938 13.2031C15.1979 13.6719 15.6927 14.25 16.0781 14.9375C16.4635 15.6146 16.6562 16.4427 16.6562 17.4219Z" fill="white"/>
<path d="M19.0187 16.2031C19.175 17.7448 19.7375 18.974 20.7062 19.8906C21.675 20.8073 22.9354 21.2656 24.4875 21.2656C25.5812 21.2656 26.5552 21.0417 27.4094 20.5938C28.2635 20.1458 28.9042 19.5885 29.3312 18.9219L30.8312 19.9531C30.1021 20.974 29.2323 21.7552 28.2219 22.2969C27.2115 22.8281 25.9667 23.0938 24.4875 23.0938C23.3625 23.0938 22.3312 22.9062 21.3937 22.5312C20.4562 22.1562 19.6437 21.6354 18.9562 20.9688C18.2792 20.2917 17.7531 19.4896 17.3781 18.5625C17.0031 17.6354 16.8156 16.6042 16.8156 15.4688C16.8156 14.3646 16.9823 13.349 17.3156 12.4219C17.6594 11.4844 18.149 10.6771 18.7844 10C19.4302 9.3125 20.2115 8.78125 21.1281 8.40625C22.0448 8.02083 23.0708 7.82812 24.2062 7.82812C25.4458 7.82812 26.5292 8.03646 27.4562 8.45312C28.3833 8.86979 29.1542 9.44792 29.7687 10.1875C30.3937 10.9167 30.8521 11.7917 31.1437 12.8125C31.4458 13.8333 31.5969 14.9635 31.5969 16.2031H19.0187ZM29.3312 14.375C29.0917 12.7812 28.5135 11.5938 27.5969 10.8125C26.6802 10.0312 25.55 9.64062 24.2062 9.64062C23.5187 9.64062 22.8833 9.75521 22.3 9.98438C21.7167 10.2031 21.201 10.5208 20.7531 10.9375C20.3052 11.3542 19.9302 11.8594 19.6281 12.4531C19.326 13.0365 19.1333 13.6771 19.05 14.375H29.3312Z" fill="white"/>
<path d="M45.1625 19.9531C44.5479 20.9115 43.7042 21.6771 42.6312 22.25C41.5687 22.8125 40.3031 23.0938 38.8344 23.0938C37.699 23.0938 36.6573 22.9062 35.7094 22.5312C34.7615 22.1562 33.949 21.6354 33.2719 20.9688C32.6052 20.2917 32.0844 19.4896 31.7094 18.5625C31.3344 17.6354 31.1469 16.6042 31.1469 15.4688C31.1469 14.3646 31.3188 13.3438 31.6625 12.4062C32.0063 11.4583 32.4958 10.651 33.1313 9.98438C33.7667 9.30729 34.5427 8.78125 35.4594 8.40625C36.3865 8.02083 37.4125 7.82812 38.5375 7.82812C38.9854 7.82812 39.4437 7.88021 39.9125 7.98438C40.3812 8.08854 40.824 8.25 41.2406 8.46875C41.6573 8.67708 42.0323 8.93229 42.3656 9.23438C42.699 9.52604 42.949 9.875 43.1156 10.2812V8.17188H45.0375V14H43.1156C43.1156 13.3542 42.9958 12.7656 42.7562 12.2344C42.5271 11.7031 42.2094 11.2448 41.8031 10.8594C41.3969 10.474 40.9125 10.1771 40.35 9.96875C39.7875 9.75 39.1833 9.64062 38.5375 9.64062C37.6625 9.64062 36.8969 9.79167 36.2406 10.0938C35.5948 10.3958 35.0531 10.8073 34.6156 11.3281C34.1781 11.849 33.8448 12.4635 33.6156 13.1719C33.3969 13.8698 33.2875 14.6354 33.2875 15.4688C33.2875 16.3021 33.4125 17.0729 33.6625 17.7812C33.9229 18.4792 34.2927 19.0833 34.7719 19.5938C35.2615 20.1042 35.8448 20.5104 36.5219 20.8125C37.2094 21.1146 37.9802 21.2656 38.8344 21.2656C39.9177 21.2656 40.8812 21.0521 41.725 20.625C42.5687 20.1979 43.2146 19.6302 43.6625 18.9219L45.1625 19.9531Z" fill="white"/>
<path d="M59.1813 10.2188C58.4104 9.83333 57.4938 9.64062 56.4313 9.64062C55.5563 9.64062 54.775 9.82812 54.0875 10.2031C53.4 10.5781 52.8167 11.0729 52.3375 11.6875C51.8583 12.2917 51.4885 12.9896 51.2281 13.7812C50.9781 14.5625 50.8531 15.3698 50.8531 16.2031V20.9062H54.15V22.7344H45.4156V20.9062H48.7125V10H45.4156V8.17188H50.8531V11.8281C51.8323 9.16146 53.6917 7.82812 56.4313 7.82812C57.1708 7.82812 57.8115 7.875 58.3531 7.96875C58.9052 8.0625 59.4156 8.22917 59.8844 8.46875L59.1813 10.2188Z" fill="white"/>
<path d="M61.825 16.2031C61.9813 17.7448 62.5438 18.974 63.5125 19.8906C64.4813 20.8073 65.7417 21.2656 67.2937 21.2656C68.3875 21.2656 69.3615 21.0417 70.2156 20.5938C71.0698 20.1458 71.7104 19.5885 72.1375 18.9219L73.6375 19.9531C72.9083 20.974 72.0385 21.7552 71.0281 22.2969C70.0177 22.8281 68.7729 23.0938 67.2937 23.0938C66.1687 23.0938 65.1375 22.9062 64.2 22.5312C63.2625 22.1562 62.45 21.6354 61.7625 20.9688C61.0854 20.2917 60.5594 19.4896 60.1844 18.5625C59.8094 17.6354 59.6219 16.6042 59.6219 15.4688C59.6219 14.3646 59.7885 13.349 60.1219 12.4219C60.4656 11.4844 60.9552 10.6771 61.5906 10C62.2365 9.3125 63.0177 8.78125 63.9344 8.40625C64.851 8.02083 65.8771 7.82812 67.0125 7.82812C68.2521 7.82812 69.3354 8.03646 70.2625 8.45312C71.1896 8.86979 71.9604 9.44792 72.575 10.1875C73.2 10.9167 73.6583 11.7917 73.95 12.8125C74.2521 13.8333 74.4031 14.9635 74.4031 16.2031H61.825ZM72.1375 14.375C71.8979 12.7812 71.3198 11.5938 70.4031 10.8125C69.4865 10.0312 68.3562 9.64062 67.0125 9.64062C66.325 9.64062 65.6896 9.75521 65.1063 9.98438C64.5229 10.2031 64.0073 10.5208 63.5594 10.9375C63.1115 11.3542 62.7365 11.8594 62.4344 12.4531C62.1323 13.0365 61.9396 13.6771 61.8563 14.375H72.1375Z" fill="white"/>
<path d="M85.6094 20.2344C85.5781 21.6875 85.6094 21.7344 85.6094 22.7344C84.6094 23.0938 84.5365 23.0938 82.9844 23.0938C82.1302 23.0938 81.349 22.9531 80.6406 22.6719C79.9323 22.3906 79.3281 22 78.8281 21.5C78.3281 21 77.9375 20.401 77.6562 19.7031C77.3854 18.9948 77.25 18.224 77.25 17.3906V10H73.9531V8.17188H77.25V2.34375H79.3906V8.17188H85.5938V10H79.3906V17.3906C79.3906 17.9219 79.474 18.4219 79.6406 18.8906C79.8177 19.3594 80.0573 19.7708 80.3594 20.125C80.6719 20.4792 81.0469 20.7604 81.4844 20.9688C81.9219 21.1667 82.4219 21.2656 82.9844 21.2656C84.0469 21.2656 84.901 20.8906 85.6094 20.2344C85.5781 21.1875 85.5781 20.1875 85.6094 20.2344Z" fill="white"/>
<path d="M99.5063 28.7344H86.4751V8.34375H88.6157V26.9062H99.5063V28.7344Z" fill="white"/>
<path d="M99.947 24.7969C99.947 23.8802 100.176 23.1146 100.634 22.5C101.093 21.875 101.692 21.3854 102.431 21.0312C103.181 20.6667 104.036 20.4062 104.994 20.25C105.963 20.0833 106.947 20 107.947 20C108.332 20 108.676 20.0052 108.978 20.0156C109.291 20.026 109.582 20.0417 109.853 20.0625C110.134 20.0833 110.416 20.1094 110.697 20.1406C110.978 20.1719 111.286 20.2083 111.619 20.25V19.2031C111.619 18.4948 111.463 17.9115 111.15 17.4531C110.848 16.9948 110.473 16.6354 110.025 16.375C109.577 16.1042 109.108 15.9167 108.619 15.8125C108.129 15.6979 107.713 15.6406 107.369 15.6406C106.286 15.6406 105.286 15.7865 104.369 16.0781C103.452 16.3698 102.598 16.7604 101.806 17.25L100.838 15.6406C101.713 15.1094 102.692 14.6771 103.775 14.3438C104.869 14 106.067 13.8281 107.369 13.8281C108.161 13.8281 108.937 13.9323 109.697 14.1406C110.468 14.3385 111.155 14.651 111.759 15.0781C112.374 15.4948 112.864 16.0469 113.228 16.7344C113.593 17.4219 113.775 18.2448 113.775 19.2031V28.7344H111.619V26.2969C111.244 26.7656 110.817 27.1771 110.338 27.5312C109.869 27.8854 109.374 28.1771 108.853 28.4062C108.332 28.625 107.812 28.7917 107.291 28.9062C106.77 29.0312 106.275 29.0938 105.806 29.0938C103.879 29.0938 102.421 28.724 101.431 27.9844C100.442 27.2448 99.947 26.1823 99.947 24.7969ZM105.806 27.2656C106.702 27.2656 107.504 27.1354 108.213 26.875C108.931 26.6042 109.541 26.2708 110.041 25.875C110.541 25.4792 110.926 25.0573 111.197 24.6094C111.478 24.1615 111.619 23.7552 111.619 23.3906V22.0156C110.921 21.9115 110.249 21.8542 109.603 21.8438C108.968 21.8333 108.416 21.8281 107.947 21.8281C107.176 21.8281 106.431 21.8802 105.713 21.9844C105.004 22.0885 104.384 22.2604 103.853 22.5C103.322 22.7292 102.895 23.0312 102.572 23.4062C102.249 23.7812 102.088 24.2448 102.088 24.7969C102.088 25.4115 102.384 25.9792 102.978 26.5C103.582 27.0104 104.525 27.2656 105.806 27.2656Z" fill="white"/>
<path d="M128.044 28.7344H125.888V19.75C125.888 18.4479 125.606 17.4375 125.044 16.7188C124.481 16 123.57 15.6406 122.309 15.6406C121.518 15.6406 120.799 15.8229 120.153 16.1875C119.518 16.5521 118.976 17.0417 118.528 17.6562C118.08 18.2604 117.737 18.9583 117.497 19.75C117.268 20.5312 117.153 21.349 117.153 22.2031V28.7344H115.013V14.1719H117.153V17.8281C118.184 15.1615 120.023 13.8281 122.669 13.8281C126.252 13.8281 128.044 15.8021 128.044 19.75V28.7344Z" fill="white"/>
<path d="M143.047 28.7344H140L134.047 22.2031L131.422 24.6094V28.7344H129.281V8.34375H131.422V22.0156L139.719 14.1719H142.781L135.484 20.8594L143.047 28.7344Z" fill="white"/>
<path d="M142.753 24.7969C142.753 23.8802 142.982 23.1146 143.441 22.5C143.899 21.875 144.498 21.3854 145.238 21.0312C145.988 20.6667 146.842 20.4062 147.8 20.25C148.769 20.0833 149.753 20 150.753 20C151.139 20 151.482 20.0052 151.784 20.0156C152.097 20.026 152.389 20.0417 152.659 20.0625C152.941 20.0833 153.222 20.1094 153.503 20.1406C153.784 20.1719 154.092 20.2083 154.425 20.25V19.2031C154.425 18.4948 154.269 17.9115 153.956 17.4531C153.654 16.9948 153.279 16.6354 152.831 16.375C152.383 16.1042 151.915 15.9167 151.425 15.8125C150.936 15.6979 150.519 15.6406 150.175 15.6406C149.092 15.6406 148.092 15.7865 147.175 16.0781C146.258 16.3698 145.404 16.7604 144.613 17.25L143.644 15.6406C144.519 15.1094 145.498 14.6771 146.581 14.3438C147.675 14 148.873 13.8281 150.175 13.8281C150.967 13.8281 151.743 13.9323 152.503 14.1406C153.274 14.3385 153.962 14.651 154.566 15.0781C155.18 15.4948 155.67 16.0469 156.034 16.7344C156.399 17.4219 156.581 18.2448 156.581 19.2031V28.7344H154.425V26.2969C154.05 26.7656 153.623 27.1771 153.144 27.5312C152.675 27.8854 152.18 28.1771 151.659 28.4062C151.139 28.625 150.618 28.7917 150.097 28.9062C149.576 29.0312 149.081 29.0938 148.613 29.0938C146.686 29.0938 145.227 28.724 144.238 27.9844C143.248 27.2448 142.753 26.1823 142.753 24.7969ZM148.613 27.2656C149.508 27.2656 150.311 27.1354 151.019 26.875C151.738 26.6042 152.347 26.2708 152.847 25.875C153.347 25.4792 153.732 25.0573 154.003 24.6094C154.284 24.1615 154.425 23.7552 154.425 23.3906V22.0156C153.727 21.9115 153.055 21.8542 152.409 21.8438C151.774 21.8333 151.222 21.8281 150.753 21.8281C149.982 21.8281 149.238 21.8802 148.519 21.9844C147.811 22.0885 147.191 22.2604 146.659 22.5C146.128 22.7292 145.701 23.0312 145.378 23.4062C145.055 23.7812 144.894 24.2448 144.894 24.7969C144.894 25.4115 145.191 25.9792 145.784 26.5C146.389 27.0104 147.331 27.2656 148.613 27.2656Z" fill="white"/>
</svg>
