<svg width="80" height="43" viewBox="0 0 80 43" fill="none" xmlns="http://www.w3.org/2000/svg">
<g clip-path="url(#clip0_76_6)">
<mask id="path-1-outside-1_76_6" maskUnits="userSpaceOnUse" x="-1" y="-1" width="80" height="26" fill="black">
<rect fill="white" x="-1" y="-1" width="80" height="26"/>
<path d="M12.2729 21.9859C14.331 21.9859 15.9247 21.6973 17.0541 21.12C18.1835 20.5427 18.7482 19.702 18.7482 18.5976C18.7482 17.6188 18.4094 16.778 17.7318 16.0753C17.0541 15.3475 16.2133 14.7326 15.2094 14.2306C14.2055 13.7286 12.8376 13.1388 11.1059 12.4612C10.9553 12.411 10.5914 12.2729 10.0141 12.0471C7.6549 11.0933 5.83529 10.1396 4.55529 9.18588C3.30039 8.23216 2.67294 7.00235 2.67294 5.49647C2.67294 3.8149 3.33804 2.54745 4.66824 1.69412C5.99843 0.840785 7.7051 0.414119 9.78824 0.414119C11.3192 0.414119 12.7247 0.614903 14.0047 1.01647C15.3098 1.39294 16.3388 1.92 17.0918 2.59765C17.8698 3.27529 18.2588 4.04079 18.2588 4.89412C17.9576 5.04471 17.669 5.12 17.3929 5.12C17.0918 5.12 16.778 5.05726 16.4518 4.93177C16.1506 4.78118 15.6988 4.54275 15.0965 4.21647C14.1176 3.68941 13.2016 3.27529 12.3482 2.97412C11.4949 2.64784 10.491 2.48471 9.33647 2.48471C7.88078 2.48471 6.70118 2.73569 5.79765 3.23765C4.89412 3.73961 4.44235 4.44235 4.44235 5.34588C4.44235 6.04863 4.74353 6.68863 5.34588 7.26588C5.97333 7.84314 6.75137 8.35765 7.68 8.80941C8.63373 9.23608 9.90118 9.75059 11.4824 10.3529C13.4902 11.131 15.1467 11.8588 16.4518 12.5365C17.7569 13.2141 18.8612 14.08 19.7647 15.1341C20.6933 16.1631 21.1576 17.3929 21.1576 18.8235C21.1576 20.5051 20.3545 21.8102 18.7482 22.7388C17.142 23.6424 15.1467 24.0941 12.7624 24.0941C10.88 24.0941 9.02275 23.818 7.19059 23.2659C5.35843 22.7137 3.7898 21.898 2.48471 20.8188C1.17961 19.7145 0.351373 18.3969 0 16.8659C0 16.1882 0.188235 15.611 0.564706 15.1341C0.941176 14.6322 1.40549 14.3812 1.95765 14.3812C1.95765 16.0126 2.40941 17.4055 3.31294 18.56C4.24157 19.6894 5.48392 20.5427 7.04 21.12C8.62118 21.6973 10.3655 21.9859 12.2729 21.9859Z"/>
<path d="M29.2744 23.4165C27.6681 23.4165 26.1874 23.1027 24.8321 22.4753C23.4768 21.8478 22.3975 20.9569 21.5944 19.8024C20.7913 18.6478 20.3897 17.3176 20.3897 15.8118C20.3897 14.1302 20.7034 12.5616 21.3309 11.1059C21.9583 9.6251 22.8744 8.44549 24.0791 7.56706C25.3089 6.66353 26.7395 6.21177 28.3709 6.21177C30.0776 6.21177 31.3701 6.76392 32.2485 7.86824C33.127 8.94745 33.5411 10.3153 33.4909 11.9718C33.4909 13.4526 32.9011 14.582 31.7215 15.36C30.567 16.138 29.0862 16.5271 27.2791 16.5271C27.003 16.5271 26.5889 16.502 26.0368 16.4518C25.1332 16.3514 24.4932 16.2133 24.1168 16.0376C23.7403 15.862 23.5521 15.5106 23.5521 14.9835C23.5521 14.8078 23.6023 14.6824 23.7026 14.6071C23.803 14.5067 24.0038 14.4565 24.305 14.4565C24.6313 14.4565 25.2085 14.5318 26.0368 14.6824C26.8399 14.8329 27.5552 14.9082 28.1826 14.9082C30.4917 14.9082 31.6462 13.9043 31.6462 11.8965C31.6462 10.6918 31.4203 9.73804 30.9685 9.03529C30.5419 8.33255 29.7764 7.98118 28.6721 7.98118C27.4674 7.98118 26.3881 8.30745 25.4344 8.96C24.4807 9.58745 23.7403 10.4157 23.2132 11.4447C22.7113 12.4737 22.4603 13.5655 22.4603 14.72C22.4603 16.7027 23.0125 18.3341 24.1168 19.6141C25.2211 20.869 26.9277 21.4965 29.2368 21.4965C29.5128 21.4965 29.9772 21.4714 30.6297 21.4212C30.9058 21.3961 31.2446 21.3208 31.6462 21.1953C32.0477 21.0698 32.3364 20.982 32.5121 20.9318C33.5913 20.5553 34.3819 20.3671 34.8838 20.3671C35.2603 20.3671 35.5489 20.4675 35.7497 20.6682C35.1223 21.622 34.1811 22.3247 32.9262 22.7765C31.6964 23.2031 30.4791 23.4165 29.2744 23.4165Z"/>
<path d="M42.7612 23.4541C39.8247 23.4541 37.5408 22.789 35.9094 21.4588C34.3031 20.1035 33.5 18.0204 33.5 15.2094C33.5 13.7788 33.8514 12.4235 34.5541 11.1435C35.282 9.83843 36.2482 8.79686 37.4529 8.01882C38.6827 7.21569 40.0004 6.81412 41.4059 6.81412C42.8365 6.81412 44.0537 7.12784 45.0576 7.7553C46.0616 8.35765 46.5635 9.23608 46.5635 10.3906C46.5635 11.1937 46.4129 11.771 46.1118 12.1224C45.8357 12.4486 45.522 12.6118 45.1706 12.6118C45.1706 11.4071 44.8443 10.4282 44.1918 9.6753C43.5392 8.92235 42.6106 8.54588 41.4059 8.54588C40.2012 8.54588 39.1596 8.87216 38.2812 9.52471C37.4027 10.1522 36.7251 10.9929 36.2482 12.0471C35.7965 13.0761 35.5706 14.1553 35.5706 15.2847C35.5706 17.669 36.3737 19.2878 37.98 20.1412C39.6114 20.9945 41.7573 21.4212 44.4177 21.4212C45.3212 21.4212 46.5008 21.371 47.9565 21.2706C48.0067 21.2706 48.1196 21.3208 48.2953 21.4212C48.471 21.5216 48.609 21.5843 48.7094 21.6094V21.8353C48.7094 22.5631 48.0694 23.0149 46.7894 23.1906C45.5094 23.3663 44.1667 23.4541 42.7612 23.4541Z"/>
<path d="M49.7762 23.4165C48.7472 21.4086 47.9315 19.0494 47.3291 16.3388C46.7519 13.6282 46.4632 11.2816 46.4632 9.29882C46.4632 8.52079 46.6389 8.01882 46.9903 7.79294C47.1911 7.66745 47.3417 7.60471 47.4421 7.60471C47.6177 7.60471 47.7432 7.74275 47.8185 8.01882C47.9189 8.2949 48.0193 8.79686 48.1197 9.52471L48.3079 10.88C48.584 9.52471 49.1111 8.45804 49.8891 7.68C50.6923 6.87686 51.6711 6.4753 52.8256 6.4753C54.1056 6.4753 55.0593 6.72628 55.6868 7.22824C56.3142 7.7051 56.6279 8.50824 56.6279 9.63765C55.373 9.0353 54.2311 8.73412 53.2021 8.73412C52.2232 8.73412 51.3825 8.99765 50.6797 9.52471C49.977 10.0518 49.4876 10.8298 49.2115 11.8588C48.9856 12.5616 48.8727 13.2267 48.8727 13.8541C48.8727 14.5318 48.9605 15.1718 49.1362 15.7741C49.337 16.3514 49.6381 17.0667 50.0397 17.92C50.4162 18.7984 50.7048 19.5514 50.9056 20.1788C51.1315 20.8063 51.257 21.4839 51.2821 22.2118C51.2821 22.6384 51.1315 22.9522 50.8303 23.1529C50.5291 23.3286 50.1778 23.4165 49.7762 23.4165Z"/>
<path d="M63.2377 23.4165C61.6314 23.4165 60.1506 23.1027 58.7953 22.4753C57.44 21.8478 56.3608 20.9569 55.5576 19.8024C54.7545 18.6478 54.3529 17.3176 54.3529 15.8118C54.3529 14.1302 54.6667 12.5616 55.2941 11.1059C55.9216 9.6251 56.8377 8.44549 58.0424 7.56706C59.2722 6.66353 60.7027 6.21177 62.3341 6.21177C64.0408 6.21177 65.3333 6.76392 66.2118 7.86824C67.0902 8.94745 67.5043 10.3153 67.4541 11.9718C67.4541 13.4526 66.8643 14.582 65.6847 15.36C64.5302 16.138 63.0494 16.5271 61.2424 16.5271C60.9663 16.5271 60.5522 16.502 60 16.4518C59.0965 16.3514 58.4565 16.2133 58.08 16.0376C57.7035 15.862 57.5153 15.5106 57.5153 14.9835C57.5153 14.8078 57.5655 14.6824 57.6659 14.6071C57.7663 14.5067 57.9671 14.4565 58.2682 14.4565C58.5945 14.4565 59.1718 14.5318 60 14.6824C60.8031 14.8329 61.5184 14.9082 62.1459 14.9082C64.4549 14.9082 65.6094 13.9043 65.6094 11.8965C65.6094 10.6918 65.3835 9.73804 64.9318 9.03529C64.5051 8.33255 63.7396 7.98118 62.6353 7.98118C61.4306 7.98118 60.3514 8.30745 59.3977 8.96C58.4439 9.58745 57.7035 10.4157 57.1765 11.4447C56.6745 12.4737 56.4235 13.5655 56.4235 14.72C56.4235 16.7027 56.9757 18.3341 58.08 19.6141C59.1843 20.869 60.891 21.4965 63.2 21.4965C63.4761 21.4965 63.9404 21.4714 64.5929 21.4212C64.869 21.3961 65.2078 21.3208 65.6094 21.1953C66.011 21.0698 66.2996 20.982 66.4753 20.9318C67.5545 20.5553 68.3451 20.3671 68.8471 20.3671C69.2235 20.3671 69.5122 20.4675 69.7129 20.6682C69.0855 21.622 68.1443 22.3247 66.8894 22.7765C65.6596 23.2031 64.4424 23.4165 63.2377 23.4165Z"/>
<path d="M73.5244 23.4165C73.2734 23.4667 73.1103 23.4918 73.035 23.4918C72.257 23.4918 71.7174 22.9145 71.4162 21.76C71.1401 20.6055 71.0021 18.9867 71.0021 16.9035C71.0021 16.0502 71.0272 14.72 71.0774 12.9129C71.1276 11.8086 71.1527 10.9804 71.1527 10.4282C68.0656 10.4282 66.5221 10.0769 66.5221 9.37412C66.5221 9.14824 66.5472 8.97255 66.5974 8.84706C66.6726 8.72157 66.8232 8.65882 67.0491 8.65882L71.1527 8.3953C71.1276 7.16549 71.0648 5.82275 70.9644 4.36706C70.864 3.06196 70.8013 1.85726 70.7762 0.75294C70.7762 0.476863 70.8891 0.288627 71.115 0.188235C71.3409 0.062745 71.5793 0 71.8303 0C72.1315 0 72.3825 0.163137 72.5832 0.489412C72.784 0.790589 72.8844 1.10431 72.8844 1.43059L73.1479 8.32L76.2726 8.47059C76.7495 8.42039 77.1511 8.50824 77.4774 8.73412C77.8287 8.96 78.017 9.33647 78.0421 9.86353C77.515 10.0894 76.9377 10.2275 76.3103 10.2776C75.6828 10.3278 74.6287 10.3529 73.1479 10.3529C73.1479 12.6871 73.2609 16.5271 73.4868 21.8729C73.4868 22.4251 73.4868 22.8141 73.4868 23.04C73.5119 23.2408 73.5244 23.3663 73.5244 23.4165Z"/>
</mask>
<path d="M12.2729 21.9859C14.331 21.9859 15.9247 21.6973 17.0541 21.12C18.1835 20.5427 18.7482 19.702 18.7482 18.5976C18.7482 17.6188 18.4094 16.778 17.7318 16.0753C17.0541 15.3475 16.2133 14.7326 15.2094 14.2306C14.2055 13.7286 12.8376 13.1388 11.1059 12.4612C10.9553 12.411 10.5914 12.2729 10.0141 12.0471C7.6549 11.0933 5.83529 10.1396 4.55529 9.18588C3.30039 8.23216 2.67294 7.00235 2.67294 5.49647C2.67294 3.8149 3.33804 2.54745 4.66824 1.69412C5.99843 0.840785 7.7051 0.414119 9.78824 0.414119C11.3192 0.414119 12.7247 0.614903 14.0047 1.01647C15.3098 1.39294 16.3388 1.92 17.0918 2.59765C17.8698 3.27529 18.2588 4.04079 18.2588 4.89412C17.9576 5.04471 17.669 5.12 17.3929 5.12C17.0918 5.12 16.778 5.05726 16.4518 4.93177C16.1506 4.78118 15.6988 4.54275 15.0965 4.21647C14.1176 3.68941 13.2016 3.27529 12.3482 2.97412C11.4949 2.64784 10.491 2.48471 9.33647 2.48471C7.88078 2.48471 6.70118 2.73569 5.79765 3.23765C4.89412 3.73961 4.44235 4.44235 4.44235 5.34588C4.44235 6.04863 4.74353 6.68863 5.34588 7.26588C5.97333 7.84314 6.75137 8.35765 7.68 8.80941C8.63373 9.23608 9.90118 9.75059 11.4824 10.3529C13.4902 11.131 15.1467 11.8588 16.4518 12.5365C17.7569 13.2141 18.8612 14.08 19.7647 15.1341C20.6933 16.1631 21.1576 17.3929 21.1576 18.8235C21.1576 20.5051 20.3545 21.8102 18.7482 22.7388C17.142 23.6424 15.1467 24.0941 12.7624 24.0941C10.88 24.0941 9.02275 23.818 7.19059 23.2659C5.35843 22.7137 3.7898 21.898 2.48471 20.8188C1.17961 19.7145 0.351373 18.3969 0 16.8659C0 16.1882 0.188235 15.611 0.564706 15.1341C0.941176 14.6322 1.40549 14.3812 1.95765 14.3812C1.95765 16.0126 2.40941 17.4055 3.31294 18.56C4.24157 19.6894 5.48392 20.5427 7.04 21.12C8.62118 21.6973 10.3655 21.9859 12.2729 21.9859Z" fill="white"/>
<path d="M29.2744 23.4165C27.6681 23.4165 26.1874 23.1027 24.8321 22.4753C23.4768 21.8478 22.3975 20.9569 21.5944 19.8024C20.7913 18.6478 20.3897 17.3176 20.3897 15.8118C20.3897 14.1302 20.7034 12.5616 21.3309 11.1059C21.9583 9.6251 22.8744 8.44549 24.0791 7.56706C25.3089 6.66353 26.7395 6.21177 28.3709 6.21177C30.0776 6.21177 31.3701 6.76392 32.2485 7.86824C33.127 8.94745 33.5411 10.3153 33.4909 11.9718C33.4909 13.4526 32.9011 14.582 31.7215 15.36C30.567 16.138 29.0862 16.5271 27.2791 16.5271C27.003 16.5271 26.5889 16.502 26.0368 16.4518C25.1332 16.3514 24.4932 16.2133 24.1168 16.0376C23.7403 15.862 23.5521 15.5106 23.5521 14.9835C23.5521 14.8078 23.6023 14.6824 23.7026 14.6071C23.803 14.5067 24.0038 14.4565 24.305 14.4565C24.6313 14.4565 25.2085 14.5318 26.0368 14.6824C26.8399 14.8329 27.5552 14.9082 28.1826 14.9082C30.4917 14.9082 31.6462 13.9043 31.6462 11.8965C31.6462 10.6918 31.4203 9.73804 30.9685 9.03529C30.5419 8.33255 29.7764 7.98118 28.6721 7.98118C27.4674 7.98118 26.3881 8.30745 25.4344 8.96C24.4807 9.58745 23.7403 10.4157 23.2132 11.4447C22.7113 12.4737 22.4603 13.5655 22.4603 14.72C22.4603 16.7027 23.0125 18.3341 24.1168 19.6141C25.2211 20.869 26.9277 21.4965 29.2368 21.4965C29.5128 21.4965 29.9772 21.4714 30.6297 21.4212C30.9058 21.3961 31.2446 21.3208 31.6462 21.1953C32.0477 21.0698 32.3364 20.982 32.5121 20.9318C33.5913 20.5553 34.3819 20.3671 34.8838 20.3671C35.2603 20.3671 35.5489 20.4675 35.7497 20.6682C35.1223 21.622 34.1811 22.3247 32.9262 22.7765C31.6964 23.2031 30.4791 23.4165 29.2744 23.4165Z" fill="white"/>
<path d="M42.7612 23.4541C39.8247 23.4541 37.5408 22.789 35.9094 21.4588C34.3031 20.1035 33.5 18.0204 33.5 15.2094C33.5 13.7788 33.8514 12.4235 34.5541 11.1435C35.282 9.83843 36.2482 8.79686 37.4529 8.01882C38.6827 7.21569 40.0004 6.81412 41.4059 6.81412C42.8365 6.81412 44.0537 7.12784 45.0576 7.7553C46.0616 8.35765 46.5635 9.23608 46.5635 10.3906C46.5635 11.1937 46.4129 11.771 46.1118 12.1224C45.8357 12.4486 45.522 12.6118 45.1706 12.6118C45.1706 11.4071 44.8443 10.4282 44.1918 9.6753C43.5392 8.92235 42.6106 8.54588 41.4059 8.54588C40.2012 8.54588 39.1596 8.87216 38.2812 9.52471C37.4027 10.1522 36.7251 10.9929 36.2482 12.0471C35.7965 13.0761 35.5706 14.1553 35.5706 15.2847C35.5706 17.669 36.3737 19.2878 37.98 20.1412C39.6114 20.9945 41.7573 21.4212 44.4177 21.4212C45.3212 21.4212 46.5008 21.371 47.9565 21.2706C48.0067 21.2706 48.1196 21.3208 48.2953 21.4212C48.471 21.5216 48.609 21.5843 48.7094 21.6094V21.8353C48.7094 22.5631 48.0694 23.0149 46.7894 23.1906C45.5094 23.3663 44.1667 23.4541 42.7612 23.4541Z" fill="white"/>
<path d="M49.7762 23.4165C48.7472 21.4086 47.9315 19.0494 47.3291 16.3388C46.7519 13.6282 46.4632 11.2816 46.4632 9.29882C46.4632 8.52079 46.6389 8.01882 46.9903 7.79294C47.1911 7.66745 47.3417 7.60471 47.4421 7.60471C47.6177 7.60471 47.7432 7.74275 47.8185 8.01882C47.9189 8.2949 48.0193 8.79686 48.1197 9.52471L48.3079 10.88C48.584 9.52471 49.1111 8.45804 49.8891 7.68C50.6923 6.87686 51.6711 6.4753 52.8256 6.4753C54.1056 6.4753 55.0593 6.72628 55.6868 7.22824C56.3142 7.7051 56.6279 8.50824 56.6279 9.63765C55.373 9.0353 54.2311 8.73412 53.2021 8.73412C52.2232 8.73412 51.3825 8.99765 50.6797 9.52471C49.977 10.0518 49.4876 10.8298 49.2115 11.8588C48.9856 12.5616 48.8727 13.2267 48.8727 13.8541C48.8727 14.5318 48.9605 15.1718 49.1362 15.7741C49.337 16.3514 49.6381 17.0667 50.0397 17.92C50.4162 18.7984 50.7048 19.5514 50.9056 20.1788C51.1315 20.8063 51.257 21.4839 51.2821 22.2118C51.2821 22.6384 51.1315 22.9522 50.8303 23.1529C50.5291 23.3286 50.1778 23.4165 49.7762 23.4165Z" fill="white"/>
<path d="M63.2377 23.4165C61.6314 23.4165 60.1506 23.1027 58.7953 22.4753C57.44 21.8478 56.3608 20.9569 55.5576 19.8024C54.7545 18.6478 54.3529 17.3176 54.3529 15.8118C54.3529 14.1302 54.6667 12.5616 55.2941 11.1059C55.9216 9.6251 56.8377 8.44549 58.0424 7.56706C59.2722 6.66353 60.7027 6.21177 62.3341 6.21177C64.0408 6.21177 65.3333 6.76392 66.2118 7.86824C67.0902 8.94745 67.5043 10.3153 67.4541 11.9718C67.4541 13.4526 66.8643 14.582 65.6847 15.36C64.5302 16.138 63.0494 16.5271 61.2424 16.5271C60.9663 16.5271 60.5522 16.502 60 16.4518C59.0965 16.3514 58.4565 16.2133 58.08 16.0376C57.7035 15.862 57.5153 15.5106 57.5153 14.9835C57.5153 14.8078 57.5655 14.6824 57.6659 14.6071C57.7663 14.5067 57.9671 14.4565 58.2682 14.4565C58.5945 14.4565 59.1718 14.5318 60 14.6824C60.8031 14.8329 61.5184 14.9082 62.1459 14.9082C64.4549 14.9082 65.6094 13.9043 65.6094 11.8965C65.6094 10.6918 65.3835 9.73804 64.9318 9.03529C64.5051 8.33255 63.7396 7.98118 62.6353 7.98118C61.4306 7.98118 60.3514 8.30745 59.3977 8.96C58.4439 9.58745 57.7035 10.4157 57.1765 11.4447C56.6745 12.4737 56.4235 13.5655 56.4235 14.72C56.4235 16.7027 56.9757 18.3341 58.08 19.6141C59.1843 20.869 60.891 21.4965 63.2 21.4965C63.4761 21.4965 63.9404 21.4714 64.5929 21.4212C64.869 21.3961 65.2078 21.3208 65.6094 21.1953C66.011 21.0698 66.2996 20.982 66.4753 20.9318C67.5545 20.5553 68.3451 20.3671 68.8471 20.3671C69.2235 20.3671 69.5122 20.4675 69.7129 20.6682C69.0855 21.622 68.1443 22.3247 66.8894 22.7765C65.6596 23.2031 64.4424 23.4165 63.2377 23.4165Z" fill="white"/>
<path d="M73.5244 23.4165C73.2734 23.4667 73.1103 23.4918 73.035 23.4918C72.257 23.4918 71.7174 22.9145 71.4162 21.76C71.1401 20.6055 71.0021 18.9867 71.0021 16.9035C71.0021 16.0502 71.0272 14.72 71.0774 12.9129C71.1276 11.8086 71.1527 10.9804 71.1527 10.4282C68.0656 10.4282 66.5221 10.0769 66.5221 9.37412C66.5221 9.14824 66.5472 8.97255 66.5974 8.84706C66.6726 8.72157 66.8232 8.65882 67.0491 8.65882L71.1527 8.3953C71.1276 7.16549 71.0648 5.82275 70.9644 4.36706C70.864 3.06196 70.8013 1.85726 70.7762 0.75294C70.7762 0.476863 70.8891 0.288627 71.115 0.188235C71.3409 0.062745 71.5793 0 71.8303 0C72.1315 0 72.3825 0.163137 72.5832 0.489412C72.784 0.790589 72.8844 1.10431 72.8844 1.43059L73.1479 8.32L76.2726 8.47059C76.7495 8.42039 77.1511 8.50824 77.4774 8.73412C77.8287 8.96 78.017 9.33647 78.0421 9.86353C77.515 10.0894 76.9377 10.2275 76.3103 10.2776C75.6828 10.3278 74.6287 10.3529 73.1479 10.3529C73.1479 12.6871 73.2609 16.5271 73.4868 21.8729C73.4868 22.4251 73.4868 22.8141 73.4868 23.04C73.5119 23.2408 73.5244 23.3663 73.5244 23.4165Z" fill="white"/>
<path d="M12.2729 21.9859C14.331 21.9859 15.9247 21.6973 17.0541 21.12C18.1835 20.5427 18.7482 19.702 18.7482 18.5976C18.7482 17.6188 18.4094 16.778 17.7318 16.0753C17.0541 15.3475 16.2133 14.7326 15.2094 14.2306C14.2055 13.7286 12.8376 13.1388 11.1059 12.4612C10.9553 12.411 10.5914 12.2729 10.0141 12.0471C7.6549 11.0933 5.83529 10.1396 4.55529 9.18588C3.30039 8.23216 2.67294 7.00235 2.67294 5.49647C2.67294 3.8149 3.33804 2.54745 4.66824 1.69412C5.99843 0.840785 7.7051 0.414119 9.78824 0.414119C11.3192 0.414119 12.7247 0.614903 14.0047 1.01647C15.3098 1.39294 16.3388 1.92 17.0918 2.59765C17.8698 3.27529 18.2588 4.04079 18.2588 4.89412C17.9576 5.04471 17.669 5.12 17.3929 5.12C17.0918 5.12 16.778 5.05726 16.4518 4.93177C16.1506 4.78118 15.6988 4.54275 15.0965 4.21647C14.1176 3.68941 13.2016 3.27529 12.3482 2.97412C11.4949 2.64784 10.491 2.48471 9.33647 2.48471C7.88078 2.48471 6.70118 2.73569 5.79765 3.23765C4.89412 3.73961 4.44235 4.44235 4.44235 5.34588C4.44235 6.04863 4.74353 6.68863 5.34588 7.26588C5.97333 7.84314 6.75137 8.35765 7.68 8.80941C8.63373 9.23608 9.90118 9.75059 11.4824 10.3529C13.4902 11.131 15.1467 11.8588 16.4518 12.5365C17.7569 13.2141 18.8612 14.08 19.7647 15.1341C20.6933 16.1631 21.1576 17.3929 21.1576 18.8235C21.1576 20.5051 20.3545 21.8102 18.7482 22.7388C17.142 23.6424 15.1467 24.0941 12.7624 24.0941C10.88 24.0941 9.02275 23.818 7.19059 23.2659C5.35843 22.7137 3.7898 21.898 2.48471 20.8188C1.17961 19.7145 0.351373 18.3969 0 16.8659C0 16.1882 0.188235 15.611 0.564706 15.1341C0.941176 14.6322 1.40549 14.3812 1.95765 14.3812C1.95765 16.0126 2.40941 17.4055 3.31294 18.56C4.24157 19.6894 5.48392 20.5427 7.04 21.12C8.62118 21.6973 10.3655 21.9859 12.2729 21.9859Z" stroke="white" stroke-width="0.7" mask="url(#path-1-outside-1_76_6)"/>
<path d="M29.2744 23.4165C27.6681 23.4165 26.1874 23.1027 24.8321 22.4753C23.4768 21.8478 22.3975 20.9569 21.5944 19.8024C20.7913 18.6478 20.3897 17.3176 20.3897 15.8118C20.3897 14.1302 20.7034 12.5616 21.3309 11.1059C21.9583 9.6251 22.8744 8.44549 24.0791 7.56706C25.3089 6.66353 26.7395 6.21177 28.3709 6.21177C30.0776 6.21177 31.3701 6.76392 32.2485 7.86824C33.127 8.94745 33.5411 10.3153 33.4909 11.9718C33.4909 13.4526 32.9011 14.582 31.7215 15.36C30.567 16.138 29.0862 16.5271 27.2791 16.5271C27.003 16.5271 26.5889 16.502 26.0368 16.4518C25.1332 16.3514 24.4932 16.2133 24.1168 16.0376C23.7403 15.862 23.5521 15.5106 23.5521 14.9835C23.5521 14.8078 23.6023 14.6824 23.7026 14.6071C23.803 14.5067 24.0038 14.4565 24.305 14.4565C24.6313 14.4565 25.2085 14.5318 26.0368 14.6824C26.8399 14.8329 27.5552 14.9082 28.1826 14.9082C30.4917 14.9082 31.6462 13.9043 31.6462 11.8965C31.6462 10.6918 31.4203 9.73804 30.9685 9.03529C30.5419 8.33255 29.7764 7.98118 28.6721 7.98118C27.4674 7.98118 26.3881 8.30745 25.4344 8.96C24.4807 9.58745 23.7403 10.4157 23.2132 11.4447C22.7113 12.4737 22.4603 13.5655 22.4603 14.72C22.4603 16.7027 23.0125 18.3341 24.1168 19.6141C25.2211 20.869 26.9277 21.4965 29.2368 21.4965C29.5128 21.4965 29.9772 21.4714 30.6297 21.4212C30.9058 21.3961 31.2446 21.3208 31.6462 21.1953C32.0477 21.0698 32.3364 20.982 32.5121 20.9318C33.5913 20.5553 34.3819 20.3671 34.8838 20.3671C35.2603 20.3671 35.5489 20.4675 35.7497 20.6682C35.1223 21.622 34.1811 22.3247 32.9262 22.7765C31.6964 23.2031 30.4791 23.4165 29.2744 23.4165Z" stroke="white" stroke-width="0.7" mask="url(#path-1-outside-1_76_6)"/>
<path d="M42.7612 23.4541C39.8247 23.4541 37.5408 22.789 35.9094 21.4588C34.3031 20.1035 33.5 18.0204 33.5 15.2094C33.5 13.7788 33.8514 12.4235 34.5541 11.1435C35.282 9.83843 36.2482 8.79686 37.4529 8.01882C38.6827 7.21569 40.0004 6.81412 41.4059 6.81412C42.8365 6.81412 44.0537 7.12784 45.0576 7.7553C46.0616 8.35765 46.5635 9.23608 46.5635 10.3906C46.5635 11.1937 46.4129 11.771 46.1118 12.1224C45.8357 12.4486 45.522 12.6118 45.1706 12.6118C45.1706 11.4071 44.8443 10.4282 44.1918 9.6753C43.5392 8.92235 42.6106 8.54588 41.4059 8.54588C40.2012 8.54588 39.1596 8.87216 38.2812 9.52471C37.4027 10.1522 36.7251 10.9929 36.2482 12.0471C35.7965 13.0761 35.5706 14.1553 35.5706 15.2847C35.5706 17.669 36.3737 19.2878 37.98 20.1412C39.6114 20.9945 41.7573 21.4212 44.4177 21.4212C45.3212 21.4212 46.5008 21.371 47.9565 21.2706C48.0067 21.2706 48.1196 21.3208 48.2953 21.4212C48.471 21.5216 48.609 21.5843 48.7094 21.6094V21.8353C48.7094 22.5631 48.0694 23.0149 46.7894 23.1906C45.5094 23.3663 44.1667 23.4541 42.7612 23.4541Z" stroke="white" stroke-width="0.7" mask="url(#path-1-outside-1_76_6)"/>
<path d="M49.7762 23.4165C48.7472 21.4086 47.9315 19.0494 47.3291 16.3388C46.7519 13.6282 46.4632 11.2816 46.4632 9.29882C46.4632 8.52079 46.6389 8.01882 46.9903 7.79294C47.1911 7.66745 47.3417 7.60471 47.4421 7.60471C47.6177 7.60471 47.7432 7.74275 47.8185 8.01882C47.9189 8.2949 48.0193 8.79686 48.1197 9.52471L48.3079 10.88C48.584 9.52471 49.1111 8.45804 49.8891 7.68C50.6923 6.87686 51.6711 6.4753 52.8256 6.4753C54.1056 6.4753 55.0593 6.72628 55.6868 7.22824C56.3142 7.7051 56.6279 8.50824 56.6279 9.63765C55.373 9.0353 54.2311 8.73412 53.2021 8.73412C52.2232 8.73412 51.3825 8.99765 50.6797 9.52471C49.977 10.0518 49.4876 10.8298 49.2115 11.8588C48.9856 12.5616 48.8727 13.2267 48.8727 13.8541C48.8727 14.5318 48.9605 15.1718 49.1362 15.7741C49.337 16.3514 49.6381 17.0667 50.0397 17.92C50.4162 18.7984 50.7048 19.5514 50.9056 20.1788C51.1315 20.8063 51.257 21.4839 51.2821 22.2118C51.2821 22.6384 51.1315 22.9522 50.8303 23.1529C50.5291 23.3286 50.1778 23.4165 49.7762 23.4165Z" stroke="white" stroke-width="0.7" mask="url(#path-1-outside-1_76_6)"/>
<path d="M63.2377 23.4165C61.6314 23.4165 60.1506 23.1027 58.7953 22.4753C57.44 21.8478 56.3608 20.9569 55.5576 19.8024C54.7545 18.6478 54.3529 17.3176 54.3529 15.8118C54.3529 14.1302 54.6667 12.5616 55.2941 11.1059C55.9216 9.6251 56.8377 8.44549 58.0424 7.56706C59.2722 6.66353 60.7027 6.21177 62.3341 6.21177C64.0408 6.21177 65.3333 6.76392 66.2118 7.86824C67.0902 8.94745 67.5043 10.3153 67.4541 11.9718C67.4541 13.4526 66.8643 14.582 65.6847 15.36C64.5302 16.138 63.0494 16.5271 61.2424 16.5271C60.9663 16.5271 60.5522 16.502 60 16.4518C59.0965 16.3514 58.4565 16.2133 58.08 16.0376C57.7035 15.862 57.5153 15.5106 57.5153 14.9835C57.5153 14.8078 57.5655 14.6824 57.6659 14.6071C57.7663 14.5067 57.9671 14.4565 58.2682 14.4565C58.5945 14.4565 59.1718 14.5318 60 14.6824C60.8031 14.8329 61.5184 14.9082 62.1459 14.9082C64.4549 14.9082 65.6094 13.9043 65.6094 11.8965C65.6094 10.6918 65.3835 9.73804 64.9318 9.03529C64.5051 8.33255 63.7396 7.98118 62.6353 7.98118C61.4306 7.98118 60.3514 8.30745 59.3977 8.96C58.4439 9.58745 57.7035 10.4157 57.1765 11.4447C56.6745 12.4737 56.4235 13.5655 56.4235 14.72C56.4235 16.7027 56.9757 18.3341 58.08 19.6141C59.1843 20.869 60.891 21.4965 63.2 21.4965C63.4761 21.4965 63.9404 21.4714 64.5929 21.4212C64.869 21.3961 65.2078 21.3208 65.6094 21.1953C66.011 21.0698 66.2996 20.982 66.4753 20.9318C67.5545 20.5553 68.3451 20.3671 68.8471 20.3671C69.2235 20.3671 69.5122 20.4675 69.7129 20.6682C69.0855 21.622 68.1443 22.3247 66.8894 22.7765C65.6596 23.2031 64.4424 23.4165 63.2377 23.4165Z" stroke="white" stroke-width="0.7" mask="url(#path-1-outside-1_76_6)"/>
<path d="M73.5244 23.4165C73.2734 23.4667 73.1103 23.4918 73.035 23.4918C72.257 23.4918 71.7174 22.9145 71.4162 21.76C71.1401 20.6055 71.0021 18.9867 71.0021 16.9035C71.0021 16.0502 71.0272 14.72 71.0774 12.9129C71.1276 11.8086 71.1527 10.9804 71.1527 10.4282C68.0656 10.4282 66.5221 10.0769 66.5221 9.37412C66.5221 9.14824 66.5472 8.97255 66.5974 8.84706C66.6726 8.72157 66.8232 8.65882 67.0491 8.65882L71.1527 8.3953C71.1276 7.16549 71.0648 5.82275 70.9644 4.36706C70.864 3.06196 70.8013 1.85726 70.7762 0.75294C70.7762 0.476863 70.8891 0.288627 71.115 0.188235C71.3409 0.062745 71.5793 0 71.8303 0C72.1315 0 72.3825 0.163137 72.5832 0.489412C72.784 0.790589 72.8844 1.10431 72.8844 1.43059L73.1479 8.32L76.2726 8.47059C76.7495 8.42039 77.1511 8.50824 77.4774 8.73412C77.8287 8.96 78.017 9.33647 78.0421 9.86353C77.515 10.0894 76.9377 10.2275 76.3103 10.2776C75.6828 10.3278 74.6287 10.3529 73.1479 10.3529C73.1479 12.6871 73.2609 16.5271 73.4868 21.8729C73.4868 22.4251 73.4868 22.8141 73.4868 23.04C73.5119 23.2408 73.5244 23.3663 73.5244 23.4165Z" stroke="white" stroke-width="0.7" mask="url(#path-1-outside-1_76_6)"/>
<mask id="path-2-outside-2_76_6" maskUnits="userSpaceOnUse" x="-0.105957" y="13.4466" width="77" height="28" fill="black">
<rect fill="white" x="-0.105957" y="13.4466" width="77" height="28"/>
<path d="M8.97404 39.9671C6.30738 39.9671 4.29404 39.5137 2.93404 38.6071C1.57404 37.6737 0.894043 35.9937 0.894043 33.5671C1.42738 20.2337 2.28071 13.8737 3.45404 14.4871C4.04071 14.5137 4.33404 15.4204 4.33404 17.2071C4.33404 18.3004 4.14738 20.6071 3.77404 24.1271C3.29404 28.1804 3.05404 31.1537 3.05404 33.0471L3.09404 34.2071C3.09404 34.7937 3.26738 35.3804 3.61404 35.9671C3.98738 36.5537 4.45404 36.8737 5.01404 36.9271L12.854 37.6071C13.1474 37.6337 13.294 37.9137 13.294 38.4471C13.294 38.9271 13.174 39.2604 12.934 39.4471C12.7207 39.6337 12.334 39.7804 11.774 39.8871L8.97404 39.9671Z"/>
<path d="M21.1787 39.8871C18.4054 39.8871 15.9921 39.4071 13.9387 38.4471C11.9121 37.4604 10.8987 35.7404 10.8987 33.2871C10.8987 32.4071 11.1654 31.5537 11.6987 30.7271C12.2321 29.9004 13.0187 29.2337 14.0587 28.7271C15.0987 28.1937 16.3654 27.9271 17.8587 27.9271C19.0054 27.9271 19.9787 27.9804 20.7787 28.0871C21.5787 28.1937 22.4987 28.4871 23.5387 28.9671C24.5787 29.4471 25.6587 30.2071 26.7787 31.2471C26.3521 29.4071 25.7121 27.7937 24.8587 26.4071C24.0054 25.0204 23.0454 23.9537 21.9787 23.2071C20.9387 22.4337 19.9121 22.0471 18.8987 22.0471C18.4187 22.0471 17.9654 22.1404 17.5387 22.3271C17.1387 22.4871 16.6454 22.7271 16.0587 23.0471C15.3921 23.4737 14.8987 23.6871 14.5787 23.6871C14.4454 23.6871 14.3254 23.6471 14.2187 23.5671C14.1387 23.4604 14.0987 23.3404 14.0987 23.2071C14.0987 22.1404 14.5654 21.3137 15.4987 20.7271C16.4587 20.1404 17.6187 19.8737 18.9787 19.9271C20.8454 20.0337 22.5521 20.8337 24.0987 22.3271C25.6454 23.7937 26.8587 25.6204 27.7387 27.8071C28.6454 29.9937 29.0987 32.1404 29.0987 34.2471C29.0987 34.5937 29.0721 35.0871 29.0187 35.7271L27.7387 35.6471C26.7254 33.5937 25.4187 32.1404 23.8187 31.2871C22.2454 30.4071 20.6587 29.9671 19.0587 29.9671C17.0054 29.9671 15.5387 30.2737 14.6587 30.8871C13.7787 31.5004 13.3387 32.3937 13.3387 33.5671C13.3387 34.7937 13.9521 35.7804 15.1787 36.5271C16.4054 37.2737 17.9787 37.6471 19.8987 37.6471C20.9654 37.6471 21.8187 37.5937 22.4587 37.4871C23.0987 37.3537 23.7654 37.1804 24.4587 36.9671C25.0187 36.7804 25.5121 36.6471 25.9387 36.5671C26.3654 36.4871 26.9121 36.4471 27.5787 36.4471C28.3254 36.4471 28.7921 36.5004 28.9787 36.6071C29.1921 36.7137 29.2987 36.9537 29.2987 37.3271C29.2987 37.5937 28.7521 37.9271 27.6587 38.3271C26.5654 38.7271 25.3387 39.0871 23.9787 39.4071C22.6187 39.7271 21.6854 39.8871 21.1787 39.8871Z"/>
<path d="M32.3003 40.0471C31.927 40.1537 31.7136 40.2071 31.6603 40.2071C31.447 40.2071 31.2203 40.1004 30.9803 39.8871C30.1003 38.5804 29.4603 36.3004 29.0603 33.0471C28.687 29.7937 28.5003 26.9937 28.5003 24.6471C28.5003 24.2737 28.767 24.0871 29.3003 24.0871C30.1003 24.0871 30.5003 24.5271 30.5003 25.4071C30.5003 25.6471 30.487 25.8471 30.4603 26.0071C30.7003 25.4471 31.1536 24.8737 31.8203 24.2871C32.487 23.7004 33.2603 23.2071 34.1403 22.8071C35.0203 22.4071 35.9136 22.2071 36.8203 22.2071C39.6736 22.2071 41.7536 23.4737 43.0603 26.0071C44.367 28.5137 45.0203 31.6337 45.0203 35.3671C45.0203 36.6471 44.887 37.6737 44.6203 38.4471C44.3536 39.1937 43.9936 39.5671 43.5403 39.5671C43.0603 39.5671 42.8203 39.4204 42.8203 39.1271C43.007 37.7137 43.1003 36.3271 43.1003 34.9671C43.1003 31.5271 42.5003 28.9271 41.3003 27.1671C40.1003 25.3804 38.5136 24.4871 36.5403 24.4871C35.5803 24.4871 34.647 24.7271 33.7403 25.2071C32.8603 25.6871 32.1403 26.3537 31.5803 27.2071C31.047 28.0604 30.7803 29.0337 30.7803 30.1271C30.7803 31.3537 30.847 32.4204 30.9803 33.3271C31.1136 34.2337 31.327 35.3271 31.6203 36.6071C31.9403 37.8604 32.167 39.0071 32.3003 40.0471Z"/>
<path d="M47.2269 39.9271C46.5602 39.9271 46.2269 39.5404 46.2269 38.7671C46.2269 38.6071 46.2802 38.2737 46.3868 37.7671C46.5202 37.2604 46.5869 36.7004 46.5869 36.0871V31.2471C46.4535 29.3537 46.1202 27.0471 45.5869 24.3271C45.0002 21.3404 44.5469 18.5671 44.2269 16.0071C44.3069 15.5537 44.5202 15.3271 44.8669 15.3271C45.3202 15.3271 45.8669 16.5271 46.5069 18.9271C47.1469 21.3004 47.8002 25.2337 48.4669 30.7271C49.0002 29.3937 49.7335 28.0471 50.6669 26.6871C51.6002 25.3004 52.5869 24.1537 53.6269 23.2471C54.6669 22.3404 55.5735 21.8871 56.3469 21.8871C56.6669 21.8871 56.8669 21.9804 56.9468 22.1671C57.0535 22.3537 57.0935 22.6204 57.0669 22.9671C55.4935 24.3537 53.9069 25.9671 52.3069 27.8071C50.7069 29.6471 49.9068 31.0737 49.9068 32.0871C49.9068 32.7004 50.4135 33.4071 51.4268 34.2071C52.4402 34.9804 53.6935 35.6737 55.1869 36.2871C56.6802 36.8737 58.0802 37.2071 59.3869 37.2871C59.8935 37.3671 60.1469 37.6737 60.1469 38.2071C60.1469 39.1137 59.2935 39.5671 57.5868 39.5671C56.2268 39.5671 54.7335 39.0204 53.1068 37.9271C51.5068 36.8337 50.1202 35.6871 48.9469 34.4871C48.8669 34.9404 48.8135 35.3404 48.7868 35.6871C48.7602 36.0071 48.7335 36.2871 48.7069 36.5271C48.6002 37.7004 48.4535 38.5671 48.2669 39.1271C48.1069 39.6604 47.7602 39.9271 47.2269 39.9271Z"/>
<path d="M68.0459 39.8871C65.2726 39.8871 62.8592 39.4071 60.8059 38.4471C58.7792 37.4604 57.7659 35.7404 57.7659 33.2871C57.7659 32.4071 58.0326 31.5537 58.5659 30.7271C59.0993 29.9004 59.8859 29.2337 60.9259 28.7271C61.9659 28.1937 63.2326 27.9271 64.7259 27.9271C65.8726 27.9271 66.8459 27.9804 67.6459 28.0871C68.4459 28.1937 69.3659 28.4871 70.4059 28.9671C71.4459 29.4471 72.5259 30.2071 73.6459 31.2471C73.2193 29.4071 72.5792 27.7937 71.7259 26.4071C70.8726 25.0204 69.9126 23.9537 68.8459 23.2071C67.8059 22.4337 66.7792 22.0471 65.7659 22.0471C65.2859 22.0471 64.8326 22.1404 64.4059 22.3271C64.0059 22.4871 63.5126 22.7271 62.9259 23.0471C62.2593 23.4737 61.7659 23.6871 61.4459 23.6871C61.3126 23.6871 61.1926 23.6471 61.0859 23.5671C61.0059 23.4604 60.9659 23.3404 60.9659 23.2071C60.9659 22.1404 61.4326 21.3137 62.3659 20.7271C63.3259 20.1404 64.4859 19.8737 65.8459 19.9271C67.7126 20.0337 69.4193 20.8337 70.9659 22.3271C72.5126 23.7937 73.7259 25.6204 74.6059 27.8071C75.5126 29.9937 75.9659 32.1404 75.9659 34.2471C75.9659 34.5937 75.9393 35.0871 75.8859 35.7271L74.6059 35.6471C73.5926 33.5937 72.2859 32.1404 70.6859 31.2871C69.1126 30.4071 67.5259 29.9671 65.9259 29.9671C63.8726 29.9671 62.4059 30.2737 61.5259 30.8871C60.6459 31.5004 60.2059 32.3937 60.2059 33.5671C60.2059 34.7937 60.8193 35.7804 62.0459 36.5271C63.2726 37.2737 64.8459 37.6471 66.7659 37.6471C67.8326 37.6471 68.6859 37.5937 69.3259 37.4871C69.9659 37.3537 70.6326 37.1804 71.3259 36.9671C71.8859 36.7804 72.3792 36.6471 72.8059 36.5671C73.2326 36.4871 73.7792 36.4471 74.4459 36.4471C75.1926 36.4471 75.6593 36.5004 75.8459 36.6071C76.0592 36.7137 76.1659 36.9537 76.1659 37.3271C76.1659 37.5937 75.6192 37.9271 74.5259 38.3271C73.4326 38.7271 72.2059 39.0871 70.8459 39.4071C69.4859 39.7271 68.5526 39.8871 68.0459 39.8871Z"/>
</mask>
<path d="M8.97404 39.9671C6.30738 39.9671 4.29404 39.5137 2.93404 38.6071C1.57404 37.6737 0.894043 35.9937 0.894043 33.5671C1.42738 20.2337 2.28071 13.8737 3.45404 14.4871C4.04071 14.5137 4.33404 15.4204 4.33404 17.2071C4.33404 18.3004 4.14738 20.6071 3.77404 24.1271C3.29404 28.1804 3.05404 31.1537 3.05404 33.0471L3.09404 34.2071C3.09404 34.7937 3.26738 35.3804 3.61404 35.9671C3.98738 36.5537 4.45404 36.8737 5.01404 36.9271L12.854 37.6071C13.1474 37.6337 13.294 37.9137 13.294 38.4471C13.294 38.9271 13.174 39.2604 12.934 39.4471C12.7207 39.6337 12.334 39.7804 11.774 39.8871L8.97404 39.9671Z" fill="black" fill-opacity="0.2"/>
<path d="M21.1787 39.8871C18.4054 39.8871 15.9921 39.4071 13.9387 38.4471C11.9121 37.4604 10.8987 35.7404 10.8987 33.2871C10.8987 32.4071 11.1654 31.5537 11.6987 30.7271C12.2321 29.9004 13.0187 29.2337 14.0587 28.7271C15.0987 28.1937 16.3654 27.9271 17.8587 27.9271C19.0054 27.9271 19.9787 27.9804 20.7787 28.0871C21.5787 28.1937 22.4987 28.4871 23.5387 28.9671C24.5787 29.4471 25.6587 30.2071 26.7787 31.2471C26.3521 29.4071 25.7121 27.7937 24.8587 26.4071C24.0054 25.0204 23.0454 23.9537 21.9787 23.2071C20.9387 22.4337 19.9121 22.0471 18.8987 22.0471C18.4187 22.0471 17.9654 22.1404 17.5387 22.3271C17.1387 22.4871 16.6454 22.7271 16.0587 23.0471C15.3921 23.4737 14.8987 23.6871 14.5787 23.6871C14.4454 23.6871 14.3254 23.6471 14.2187 23.5671C14.1387 23.4604 14.0987 23.3404 14.0987 23.2071C14.0987 22.1404 14.5654 21.3137 15.4987 20.7271C16.4587 20.1404 17.6187 19.8737 18.9787 19.9271C20.8454 20.0337 22.5521 20.8337 24.0987 22.3271C25.6454 23.7937 26.8587 25.6204 27.7387 27.8071C28.6454 29.9937 29.0987 32.1404 29.0987 34.2471C29.0987 34.5937 29.0721 35.0871 29.0187 35.7271L27.7387 35.6471C26.7254 33.5937 25.4187 32.1404 23.8187 31.2871C22.2454 30.4071 20.6587 29.9671 19.0587 29.9671C17.0054 29.9671 15.5387 30.2737 14.6587 30.8871C13.7787 31.5004 13.3387 32.3937 13.3387 33.5671C13.3387 34.7937 13.9521 35.7804 15.1787 36.5271C16.4054 37.2737 17.9787 37.6471 19.8987 37.6471C20.9654 37.6471 21.8187 37.5937 22.4587 37.4871C23.0987 37.3537 23.7654 37.1804 24.4587 36.9671C25.0187 36.7804 25.5121 36.6471 25.9387 36.5671C26.3654 36.4871 26.9121 36.4471 27.5787 36.4471C28.3254 36.4471 28.7921 36.5004 28.9787 36.6071C29.1921 36.7137 29.2987 36.9537 29.2987 37.3271C29.2987 37.5937 28.7521 37.9271 27.6587 38.3271C26.5654 38.7271 25.3387 39.0871 23.9787 39.4071C22.6187 39.7271 21.6854 39.8871 21.1787 39.8871Z" fill="black" fill-opacity="0.2"/>
<path d="M32.3003 40.0471C31.927 40.1537 31.7136 40.2071 31.6603 40.2071C31.447 40.2071 31.2203 40.1004 30.9803 39.8871C30.1003 38.5804 29.4603 36.3004 29.0603 33.0471C28.687 29.7937 28.5003 26.9937 28.5003 24.6471C28.5003 24.2737 28.767 24.0871 29.3003 24.0871C30.1003 24.0871 30.5003 24.5271 30.5003 25.4071C30.5003 25.6471 30.487 25.8471 30.4603 26.0071C30.7003 25.4471 31.1536 24.8737 31.8203 24.2871C32.487 23.7004 33.2603 23.2071 34.1403 22.8071C35.0203 22.4071 35.9136 22.2071 36.8203 22.2071C39.6736 22.2071 41.7536 23.4737 43.0603 26.0071C44.367 28.5137 45.0203 31.6337 45.0203 35.3671C45.0203 36.6471 44.887 37.6737 44.6203 38.4471C44.3536 39.1937 43.9936 39.5671 43.5403 39.5671C43.0603 39.5671 42.8203 39.4204 42.8203 39.1271C43.007 37.7137 43.1003 36.3271 43.1003 34.9671C43.1003 31.5271 42.5003 28.9271 41.3003 27.1671C40.1003 25.3804 38.5136 24.4871 36.5403 24.4871C35.5803 24.4871 34.647 24.7271 33.7403 25.2071C32.8603 25.6871 32.1403 26.3537 31.5803 27.2071C31.047 28.0604 30.7803 29.0337 30.7803 30.1271C30.7803 31.3537 30.847 32.4204 30.9803 33.3271C31.1136 34.2337 31.327 35.3271 31.6203 36.6071C31.9403 37.8604 32.167 39.0071 32.3003 40.0471Z" fill="black" fill-opacity="0.2"/>
<path d="M47.2269 39.9271C46.5602 39.9271 46.2269 39.5404 46.2269 38.7671C46.2269 38.6071 46.2802 38.2737 46.3868 37.7671C46.5202 37.2604 46.5869 36.7004 46.5869 36.0871V31.2471C46.4535 29.3537 46.1202 27.0471 45.5869 24.3271C45.0002 21.3404 44.5469 18.5671 44.2269 16.0071C44.3069 15.5537 44.5202 15.3271 44.8669 15.3271C45.3202 15.3271 45.8669 16.5271 46.5069 18.9271C47.1469 21.3004 47.8002 25.2337 48.4669 30.7271C49.0002 29.3937 49.7335 28.0471 50.6669 26.6871C51.6002 25.3004 52.5869 24.1537 53.6269 23.2471C54.6669 22.3404 55.5735 21.8871 56.3469 21.8871C56.6669 21.8871 56.8669 21.9804 56.9468 22.1671C57.0535 22.3537 57.0935 22.6204 57.0669 22.9671C55.4935 24.3537 53.9069 25.9671 52.3069 27.8071C50.7069 29.6471 49.9068 31.0737 49.9068 32.0871C49.9068 32.7004 50.4135 33.4071 51.4268 34.2071C52.4402 34.9804 53.6935 35.6737 55.1869 36.2871C56.6802 36.8737 58.0802 37.2071 59.3869 37.2871C59.8935 37.3671 60.1469 37.6737 60.1469 38.2071C60.1469 39.1137 59.2935 39.5671 57.5868 39.5671C56.2268 39.5671 54.7335 39.0204 53.1068 37.9271C51.5068 36.8337 50.1202 35.6871 48.9469 34.4871C48.8669 34.9404 48.8135 35.3404 48.7868 35.6871C48.7602 36.0071 48.7335 36.2871 48.7069 36.5271C48.6002 37.7004 48.4535 38.5671 48.2669 39.1271C48.1069 39.6604 47.7602 39.9271 47.2269 39.9271Z" fill="black" fill-opacity="0.2"/>
<path d="M68.0459 39.8871C65.2726 39.8871 62.8592 39.4071 60.8059 38.4471C58.7792 37.4604 57.7659 35.7404 57.7659 33.2871C57.7659 32.4071 58.0326 31.5537 58.5659 30.7271C59.0993 29.9004 59.8859 29.2337 60.9259 28.7271C61.9659 28.1937 63.2326 27.9271 64.7259 27.9271C65.8726 27.9271 66.8459 27.9804 67.6459 28.0871C68.4459 28.1937 69.3659 28.4871 70.4059 28.9671C71.4459 29.4471 72.5259 30.2071 73.6459 31.2471C73.2193 29.4071 72.5792 27.7937 71.7259 26.4071C70.8726 25.0204 69.9126 23.9537 68.8459 23.2071C67.8059 22.4337 66.7792 22.0471 65.7659 22.0471C65.2859 22.0471 64.8326 22.1404 64.4059 22.3271C64.0059 22.4871 63.5126 22.7271 62.9259 23.0471C62.2593 23.4737 61.7659 23.6871 61.4459 23.6871C61.3126 23.6871 61.1926 23.6471 61.0859 23.5671C61.0059 23.4604 60.9659 23.3404 60.9659 23.2071C60.9659 22.1404 61.4326 21.3137 62.3659 20.7271C63.3259 20.1404 64.4859 19.8737 65.8459 19.9271C67.7126 20.0337 69.4193 20.8337 70.9659 22.3271C72.5126 23.7937 73.7259 25.6204 74.6059 27.8071C75.5126 29.9937 75.9659 32.1404 75.9659 34.2471C75.9659 34.5937 75.9393 35.0871 75.8859 35.7271L74.6059 35.6471C73.5926 33.5937 72.2859 32.1404 70.6859 31.2871C69.1126 30.4071 67.5259 29.9671 65.9259 29.9671C63.8726 29.9671 62.4059 30.2737 61.5259 30.8871C60.6459 31.5004 60.2059 32.3937 60.2059 33.5671C60.2059 34.7937 60.8193 35.7804 62.0459 36.5271C63.2726 37.2737 64.8459 37.6471 66.7659 37.6471C67.8326 37.6471 68.6859 37.5937 69.3259 37.4871C69.9659 37.3537 70.6326 37.1804 71.3259 36.9671C71.8859 36.7804 72.3792 36.6471 72.8059 36.5671C73.2326 36.4871 73.7792 36.4471 74.4459 36.4471C75.1926 36.4471 75.6593 36.5004 75.8459 36.6071C76.0592 36.7137 76.1659 36.9537 76.1659 37.3271C76.1659 37.5937 75.6192 37.9271 74.5259 38.3271C73.4326 38.7271 72.2059 39.0871 70.8459 39.4071C69.4859 39.7271 68.5526 39.8871 68.0459 39.8871Z" fill="black" fill-opacity="0.2"/>
<path d="M8.97404 39.9671C6.30738 39.9671 4.29404 39.5137 2.93404 38.6071C1.57404 37.6737 0.894043 35.9937 0.894043 33.5671C1.42738 20.2337 2.28071 13.8737 3.45404 14.4871C4.04071 14.5137 4.33404 15.4204 4.33404 17.2071C4.33404 18.3004 4.14738 20.6071 3.77404 24.1271C3.29404 28.1804 3.05404 31.1537 3.05404 33.0471L3.09404 34.2071C3.09404 34.7937 3.26738 35.3804 3.61404 35.9671C3.98738 36.5537 4.45404 36.8737 5.01404 36.9271L12.854 37.6071C13.1474 37.6337 13.294 37.9137 13.294 38.4471C13.294 38.9271 13.174 39.2604 12.934 39.4471C12.7207 39.6337 12.334 39.7804 11.774 39.8871L8.97404 39.9671Z" stroke="black" stroke-opacity="0.2" stroke-width="0.7" mask="url(#path-2-outside-2_76_6)"/>
<path d="M21.1787 39.8871C18.4054 39.8871 15.9921 39.4071 13.9387 38.4471C11.9121 37.4604 10.8987 35.7404 10.8987 33.2871C10.8987 32.4071 11.1654 31.5537 11.6987 30.7271C12.2321 29.9004 13.0187 29.2337 14.0587 28.7271C15.0987 28.1937 16.3654 27.9271 17.8587 27.9271C19.0054 27.9271 19.9787 27.9804 20.7787 28.0871C21.5787 28.1937 22.4987 28.4871 23.5387 28.9671C24.5787 29.4471 25.6587 30.2071 26.7787 31.2471C26.3521 29.4071 25.7121 27.7937 24.8587 26.4071C24.0054 25.0204 23.0454 23.9537 21.9787 23.2071C20.9387 22.4337 19.9121 22.0471 18.8987 22.0471C18.4187 22.0471 17.9654 22.1404 17.5387 22.3271C17.1387 22.4871 16.6454 22.7271 16.0587 23.0471C15.3921 23.4737 14.8987 23.6871 14.5787 23.6871C14.4454 23.6871 14.3254 23.6471 14.2187 23.5671C14.1387 23.4604 14.0987 23.3404 14.0987 23.2071C14.0987 22.1404 14.5654 21.3137 15.4987 20.7271C16.4587 20.1404 17.6187 19.8737 18.9787 19.9271C20.8454 20.0337 22.5521 20.8337 24.0987 22.3271C25.6454 23.7937 26.8587 25.6204 27.7387 27.8071C28.6454 29.9937 29.0987 32.1404 29.0987 34.2471C29.0987 34.5937 29.0721 35.0871 29.0187 35.7271L27.7387 35.6471C26.7254 33.5937 25.4187 32.1404 23.8187 31.2871C22.2454 30.4071 20.6587 29.9671 19.0587 29.9671C17.0054 29.9671 15.5387 30.2737 14.6587 30.8871C13.7787 31.5004 13.3387 32.3937 13.3387 33.5671C13.3387 34.7937 13.9521 35.7804 15.1787 36.5271C16.4054 37.2737 17.9787 37.6471 19.8987 37.6471C20.9654 37.6471 21.8187 37.5937 22.4587 37.4871C23.0987 37.3537 23.7654 37.1804 24.4587 36.9671C25.0187 36.7804 25.5121 36.6471 25.9387 36.5671C26.3654 36.4871 26.9121 36.4471 27.5787 36.4471C28.3254 36.4471 28.7921 36.5004 28.9787 36.6071C29.1921 36.7137 29.2987 36.9537 29.2987 37.3271C29.2987 37.5937 28.7521 37.9271 27.6587 38.3271C26.5654 38.7271 25.3387 39.0871 23.9787 39.4071C22.6187 39.7271 21.6854 39.8871 21.1787 39.8871Z" stroke="black" stroke-opacity="0.2" stroke-width="0.7" mask="url(#path-2-outside-2_76_6)"/>
<path d="M32.3003 40.0471C31.927 40.1537 31.7136 40.2071 31.6603 40.2071C31.447 40.2071 31.2203 40.1004 30.9803 39.8871C30.1003 38.5804 29.4603 36.3004 29.0603 33.0471C28.687 29.7937 28.5003 26.9937 28.5003 24.6471C28.5003 24.2737 28.767 24.0871 29.3003 24.0871C30.1003 24.0871 30.5003 24.5271 30.5003 25.4071C30.5003 25.6471 30.487 25.8471 30.4603 26.0071C30.7003 25.4471 31.1536 24.8737 31.8203 24.2871C32.487 23.7004 33.2603 23.2071 34.1403 22.8071C35.0203 22.4071 35.9136 22.2071 36.8203 22.2071C39.6736 22.2071 41.7536 23.4737 43.0603 26.0071C44.367 28.5137 45.0203 31.6337 45.0203 35.3671C45.0203 36.6471 44.887 37.6737 44.6203 38.4471C44.3536 39.1937 43.9936 39.5671 43.5403 39.5671C43.0603 39.5671 42.8203 39.4204 42.8203 39.1271C43.007 37.7137 43.1003 36.3271 43.1003 34.9671C43.1003 31.5271 42.5003 28.9271 41.3003 27.1671C40.1003 25.3804 38.5136 24.4871 36.5403 24.4871C35.5803 24.4871 34.647 24.7271 33.7403 25.2071C32.8603 25.6871 32.1403 26.3537 31.5803 27.2071C31.047 28.0604 30.7803 29.0337 30.7803 30.1271C30.7803 31.3537 30.847 32.4204 30.9803 33.3271C31.1136 34.2337 31.327 35.3271 31.6203 36.6071C31.9403 37.8604 32.167 39.0071 32.3003 40.0471Z" stroke="black" stroke-opacity="0.2" stroke-width="0.7" mask="url(#path-2-outside-2_76_6)"/>
<path d="M47.2269 39.9271C46.5602 39.9271 46.2269 39.5404 46.2269 38.7671C46.2269 38.6071 46.2802 38.2737 46.3868 37.7671C46.5202 37.2604 46.5869 36.7004 46.5869 36.0871V31.2471C46.4535 29.3537 46.1202 27.0471 45.5869 24.3271C45.0002 21.3404 44.5469 18.5671 44.2269 16.0071C44.3069 15.5537 44.5202 15.3271 44.8669 15.3271C45.3202 15.3271 45.8669 16.5271 46.5069 18.9271C47.1469 21.3004 47.8002 25.2337 48.4669 30.7271C49.0002 29.3937 49.7335 28.0471 50.6669 26.6871C51.6002 25.3004 52.5869 24.1537 53.6269 23.2471C54.6669 22.3404 55.5735 21.8871 56.3469 21.8871C56.6669 21.8871 56.8669 21.9804 56.9468 22.1671C57.0535 22.3537 57.0935 22.6204 57.0669 22.9671C55.4935 24.3537 53.9069 25.9671 52.3069 27.8071C50.7069 29.6471 49.9068 31.0737 49.9068 32.0871C49.9068 32.7004 50.4135 33.4071 51.4268 34.2071C52.4402 34.9804 53.6935 35.6737 55.1869 36.2871C56.6802 36.8737 58.0802 37.2071 59.3869 37.2871C59.8935 37.3671 60.1469 37.6737 60.1469 38.2071C60.1469 39.1137 59.2935 39.5671 57.5868 39.5671C56.2268 39.5671 54.7335 39.0204 53.1068 37.9271C51.5068 36.8337 50.1202 35.6871 48.9469 34.4871C48.8669 34.9404 48.8135 35.3404 48.7868 35.6871C48.7602 36.0071 48.7335 36.2871 48.7069 36.5271C48.6002 37.7004 48.4535 38.5671 48.2669 39.1271C48.1069 39.6604 47.7602 39.9271 47.2269 39.9271Z" stroke="black" stroke-opacity="0.2" stroke-width="0.7" mask="url(#path-2-outside-2_76_6)"/>
<path d="M68.0459 39.8871C65.2726 39.8871 62.8592 39.4071 60.8059 38.4471C58.7792 37.4604 57.7659 35.7404 57.7659 33.2871C57.7659 32.4071 58.0326 31.5537 58.5659 30.7271C59.0993 29.9004 59.8859 29.2337 60.9259 28.7271C61.9659 28.1937 63.2326 27.9271 64.7259 27.9271C65.8726 27.9271 66.8459 27.9804 67.6459 28.0871C68.4459 28.1937 69.3659 28.4871 70.4059 28.9671C71.4459 29.4471 72.5259 30.2071 73.6459 31.2471C73.2193 29.4071 72.5792 27.7937 71.7259 26.4071C70.8726 25.0204 69.9126 23.9537 68.8459 23.2071C67.8059 22.4337 66.7792 22.0471 65.7659 22.0471C65.2859 22.0471 64.8326 22.1404 64.4059 22.3271C64.0059 22.4871 63.5126 22.7271 62.9259 23.0471C62.2593 23.4737 61.7659 23.6871 61.4459 23.6871C61.3126 23.6871 61.1926 23.6471 61.0859 23.5671C61.0059 23.4604 60.9659 23.3404 60.9659 23.2071C60.9659 22.1404 61.4326 21.3137 62.3659 20.7271C63.3259 20.1404 64.4859 19.8737 65.8459 19.9271C67.7126 20.0337 69.4193 20.8337 70.9659 22.3271C72.5126 23.7937 73.7259 25.6204 74.6059 27.8071C75.5126 29.9937 75.9659 32.1404 75.9659 34.2471C75.9659 34.5937 75.9393 35.0871 75.8859 35.7271L74.6059 35.6471C73.5926 33.5937 72.2859 32.1404 70.6859 31.2871C69.1126 30.4071 67.5259 29.9671 65.9259 29.9671C63.8726 29.9671 62.4059 30.2737 61.5259 30.8871C60.6459 31.5004 60.2059 32.3937 60.2059 33.5671C60.2059 34.7937 60.8193 35.7804 62.0459 36.5271C63.2726 37.2737 64.8459 37.6471 66.7659 37.6471C67.8326 37.6471 68.6859 37.5937 69.3259 37.4871C69.9659 37.3537 70.6326 37.1804 71.3259 36.9671C71.8859 36.7804 72.3792 36.6471 72.8059 36.5671C73.2326 36.4871 73.7792 36.4471 74.4459 36.4471C75.1926 36.4471 75.6593 36.5004 75.8459 36.6071C76.0592 36.7137 76.1659 36.9537 76.1659 37.3271C76.1659 37.5937 75.6192 37.9271 74.5259 38.3271C73.4326 38.7271 72.2059 39.0871 70.8459 39.4071C69.4859 39.7271 68.5526 39.8871 68.0459 39.8871Z" stroke="black" stroke-opacity="0.2" stroke-width="0.7" mask="url(#path-2-outside-2_76_6)"/>
<mask id="path-3-outside-3_76_6" maskUnits="userSpaceOnUse" x="-0.105957" y="14.6231" width="77" height="28" fill="black">
<rect fill="white" x="-0.105957" y="14.6231" width="77" height="28"/>
<path d="M8.97404 41.1435C6.30738 41.1435 4.29404 40.6902 2.93404 39.7835C1.57404 38.8502 0.894043 37.1702 0.894043 34.7435C1.42738 21.4102 2.28071 15.0502 3.45404 15.6635C4.04071 15.6902 4.33404 16.5969 4.33404 18.3835C4.33404 19.4769 4.14738 21.7835 3.77404 25.3035C3.29404 29.3569 3.05404 32.3302 3.05404 34.2235L3.09404 35.3835C3.09404 35.9702 3.26738 36.5569 3.61404 37.1435C3.98738 37.7302 4.45404 38.0502 5.01404 38.1035L12.854 38.7835C13.1474 38.8102 13.294 39.0902 13.294 39.6235C13.294 40.1035 13.174 40.4369 12.934 40.6235C12.7207 40.8102 12.334 40.9569 11.774 41.0635L8.97404 41.1435Z"/>
<path d="M21.1787 41.0635C18.4054 41.0635 15.9921 40.5835 13.9387 39.6235C11.9121 38.6369 10.8987 36.9169 10.8987 34.4635C10.8987 33.5835 11.1654 32.7302 11.6987 31.9035C12.2321 31.0769 13.0187 30.4102 14.0587 29.9035C15.0987 29.3702 16.3654 29.1035 17.8587 29.1035C19.0054 29.1035 19.9787 29.1569 20.7787 29.2635C21.5787 29.3702 22.4987 29.6635 23.5387 30.1435C24.5787 30.6235 25.6587 31.3835 26.7787 32.4235C26.3521 30.5835 25.7121 28.9702 24.8587 27.5835C24.0054 26.1969 23.0454 25.1302 21.9787 24.3835C20.9387 23.6102 19.9121 23.2235 18.8987 23.2235C18.4187 23.2235 17.9654 23.3169 17.5387 23.5035C17.1387 23.6635 16.6454 23.9035 16.0587 24.2235C15.3921 24.6502 14.8987 24.8635 14.5787 24.8635C14.4454 24.8635 14.3254 24.8235 14.2187 24.7435C14.1387 24.6369 14.0987 24.5169 14.0987 24.3835C14.0987 23.3169 14.5654 22.4902 15.4987 21.9035C16.4587 21.3169 17.6187 21.0502 18.9787 21.1035C20.8454 21.2102 22.5521 22.0102 24.0987 23.5035C25.6454 24.9702 26.8587 26.7969 27.7387 28.9835C28.6454 31.1702 29.0987 33.3169 29.0987 35.4235C29.0987 35.7702 29.0721 36.2635 29.0187 36.9035L27.7387 36.8235C26.7254 34.7702 25.4187 33.3169 23.8187 32.4635C22.2454 31.5835 20.6587 31.1435 19.0587 31.1435C17.0054 31.1435 15.5387 31.4502 14.6587 32.0635C13.7787 32.6769 13.3387 33.5702 13.3387 34.7435C13.3387 35.9702 13.9521 36.9569 15.1787 37.7035C16.4054 38.4502 17.9787 38.8235 19.8987 38.8235C20.9654 38.8235 21.8187 38.7702 22.4587 38.6635C23.0987 38.5302 23.7654 38.3569 24.4587 38.1435C25.0187 37.9569 25.5121 37.8235 25.9387 37.7435C26.3654 37.6635 26.9121 37.6235 27.5787 37.6235C28.3254 37.6235 28.7921 37.6769 28.9787 37.7835C29.1921 37.8902 29.2987 38.1302 29.2987 38.5035C29.2987 38.7702 28.7521 39.1035 27.6587 39.5035C26.5654 39.9035 25.3387 40.2635 23.9787 40.5835C22.6187 40.9035 21.6854 41.0635 21.1787 41.0635Z"/>
<path d="M32.3003 41.2235C31.927 41.3302 31.7136 41.3835 31.6603 41.3835C31.447 41.3835 31.2203 41.2769 30.9803 41.0635C30.1003 39.7569 29.4603 37.4769 29.0603 34.2235C28.687 30.9702 28.5003 28.1702 28.5003 25.8235C28.5003 25.4502 28.767 25.2635 29.3003 25.2635C30.1003 25.2635 30.5003 25.7035 30.5003 26.5835C30.5003 26.8235 30.487 27.0235 30.4603 27.1835C30.7003 26.6235 31.1536 26.0502 31.8203 25.4635C32.487 24.8769 33.2603 24.3835 34.1403 23.9835C35.0203 23.5835 35.9136 23.3835 36.8203 23.3835C39.6736 23.3835 41.7536 24.6502 43.0603 27.1835C44.367 29.6902 45.0203 32.8102 45.0203 36.5435C45.0203 37.8235 44.887 38.8502 44.6203 39.6235C44.3536 40.3702 43.9936 40.7435 43.5403 40.7435C43.0603 40.7435 42.8203 40.5969 42.8203 40.3035C43.007 38.8902 43.1003 37.5035 43.1003 36.1435C43.1003 32.7035 42.5003 30.1035 41.3003 28.3435C40.1003 26.5569 38.5136 25.6635 36.5403 25.6635C35.5803 25.6635 34.647 25.9035 33.7403 26.3835C32.8603 26.8635 32.1403 27.5302 31.5803 28.3835C31.047 29.2369 30.7803 30.2102 30.7803 31.3035C30.7803 32.5302 30.847 33.5969 30.9803 34.5035C31.1136 35.4102 31.327 36.5035 31.6203 37.7835C31.9403 39.0369 32.167 40.1835 32.3003 41.2235Z"/>
<path d="M47.2269 41.1035C46.5602 41.1035 46.2269 40.7169 46.2269 39.9435C46.2269 39.7835 46.2802 39.4502 46.3868 38.9435C46.5202 38.4369 46.5869 37.8769 46.5869 37.2635V32.4235C46.4535 30.5302 46.1202 28.2235 45.5869 25.5035C45.0002 22.5169 44.5469 19.7435 44.2269 17.1835C44.3069 16.7302 44.5202 16.5035 44.8669 16.5035C45.3202 16.5035 45.8669 17.7035 46.5069 20.1035C47.1469 22.4769 47.8002 26.4102 48.4669 31.9035C49.0002 30.5702 49.7335 29.2235 50.6669 27.8635C51.6002 26.4769 52.5869 25.3302 53.6269 24.4235C54.6669 23.5169 55.5735 23.0635 56.3469 23.0635C56.6669 23.0635 56.8669 23.1569 56.9469 23.3435C57.0535 23.5302 57.0935 23.7969 57.0669 24.1435C55.4935 25.5302 53.9069 27.1435 52.3069 28.9835C50.7069 30.8235 49.9069 32.2502 49.9069 33.2635C49.9069 33.8769 50.4135 34.5835 51.4268 35.3835C52.4402 36.1569 53.6935 36.8502 55.1869 37.4635C56.6802 38.0502 58.0802 38.3835 59.3869 38.4635C59.8935 38.5435 60.1469 38.8502 60.1469 39.3835C60.1469 40.2902 59.2935 40.7435 57.5868 40.7435C56.2268 40.7435 54.7335 40.1969 53.1069 39.1035C51.5069 38.0102 50.1202 36.8635 48.9469 35.6635C48.8669 36.1169 48.8135 36.5169 48.7869 36.8635C48.7602 37.1835 48.7335 37.4635 48.7069 37.7035C48.6002 38.8769 48.4535 39.7435 48.2669 40.3035C48.1069 40.8369 47.7602 41.1035 47.2269 41.1035Z"/>
<path d="M68.0459 41.0635C65.2726 41.0635 62.8592 40.5835 60.8059 39.6235C58.7792 38.6369 57.7659 36.9169 57.7659 34.4635C57.7659 33.5835 58.0326 32.7302 58.5659 31.9035C59.0992 31.0769 59.8859 30.4102 60.9259 29.9035C61.9659 29.3702 63.2326 29.1035 64.7259 29.1035C65.8726 29.1035 66.8459 29.1569 67.6459 29.2635C68.4459 29.3702 69.3659 29.6635 70.4059 30.1435C71.4459 30.6235 72.5259 31.3835 73.6459 32.4235C73.2193 30.5835 72.5792 28.9702 71.7259 27.5835C70.8726 26.1969 69.9126 25.1302 68.8459 24.3835C67.8059 23.6102 66.7792 23.2235 65.7659 23.2235C65.2859 23.2235 64.8326 23.3169 64.4059 23.5035C64.0059 23.6635 63.5126 23.9035 62.9259 24.2235C62.2593 24.6502 61.7659 24.8635 61.4459 24.8635C61.3126 24.8635 61.1926 24.8235 61.0859 24.7435C61.0059 24.6369 60.9659 24.5169 60.9659 24.3835C60.9659 23.3169 61.4326 22.4902 62.3659 21.9035C63.3259 21.3169 64.4859 21.0502 65.8459 21.1035C67.7126 21.2102 69.4193 22.0102 70.9659 23.5035C72.5126 24.9702 73.7259 26.7969 74.6059 28.9835C75.5126 31.1702 75.9659 33.3169 75.9659 35.4235C75.9659 35.7702 75.9392 36.2635 75.8859 36.9035L74.6059 36.8235C73.5926 34.7702 72.2859 33.3169 70.6859 32.4635C69.1126 31.5835 67.5259 31.1435 65.9259 31.1435C63.8726 31.1435 62.4059 31.4502 61.5259 32.0635C60.6459 32.6769 60.2059 33.5702 60.2059 34.7435C60.2059 35.9702 60.8192 36.9569 62.0459 37.7035C63.2726 38.4502 64.8459 38.8235 66.7659 38.8235C67.8326 38.8235 68.6859 38.7702 69.3259 38.6635C69.9659 38.5302 70.6326 38.3569 71.3259 38.1435C71.8859 37.9569 72.3792 37.8235 72.8059 37.7435C73.2326 37.6635 73.7792 37.6235 74.4459 37.6235C75.1926 37.6235 75.6592 37.6769 75.8459 37.7835C76.0592 37.8902 76.1659 38.1302 76.1659 38.5035C76.1659 38.7702 75.6193 39.1035 74.5259 39.5035C73.4326 39.9035 72.2059 40.2635 70.8459 40.5835C69.4859 40.9035 68.5526 41.0635 68.0459 41.0635Z"/>
</mask>
<path d="M8.97404 41.1435C6.30738 41.1435 4.29404 40.6902 2.93404 39.7835C1.57404 38.8502 0.894043 37.1702 0.894043 34.7435C1.42738 21.4102 2.28071 15.0502 3.45404 15.6635C4.04071 15.6902 4.33404 16.5969 4.33404 18.3835C4.33404 19.4769 4.14738 21.7835 3.77404 25.3035C3.29404 29.3569 3.05404 32.3302 3.05404 34.2235L3.09404 35.3835C3.09404 35.9702 3.26738 36.5569 3.61404 37.1435C3.98738 37.7302 4.45404 38.0502 5.01404 38.1035L12.854 38.7835C13.1474 38.8102 13.294 39.0902 13.294 39.6235C13.294 40.1035 13.174 40.4369 12.934 40.6235C12.7207 40.8102 12.334 40.9569 11.774 41.0635L8.97404 41.1435Z" fill="white"/>
<path d="M21.1787 41.0635C18.4054 41.0635 15.9921 40.5835 13.9387 39.6235C11.9121 38.6369 10.8987 36.9169 10.8987 34.4635C10.8987 33.5835 11.1654 32.7302 11.6987 31.9035C12.2321 31.0769 13.0187 30.4102 14.0587 29.9035C15.0987 29.3702 16.3654 29.1035 17.8587 29.1035C19.0054 29.1035 19.9787 29.1569 20.7787 29.2635C21.5787 29.3702 22.4987 29.6635 23.5387 30.1435C24.5787 30.6235 25.6587 31.3835 26.7787 32.4235C26.3521 30.5835 25.7121 28.9702 24.8587 27.5835C24.0054 26.1969 23.0454 25.1302 21.9787 24.3835C20.9387 23.6102 19.9121 23.2235 18.8987 23.2235C18.4187 23.2235 17.9654 23.3169 17.5387 23.5035C17.1387 23.6635 16.6454 23.9035 16.0587 24.2235C15.3921 24.6502 14.8987 24.8635 14.5787 24.8635C14.4454 24.8635 14.3254 24.8235 14.2187 24.7435C14.1387 24.6369 14.0987 24.5169 14.0987 24.3835C14.0987 23.3169 14.5654 22.4902 15.4987 21.9035C16.4587 21.3169 17.6187 21.0502 18.9787 21.1035C20.8454 21.2102 22.5521 22.0102 24.0987 23.5035C25.6454 24.9702 26.8587 26.7969 27.7387 28.9835C28.6454 31.1702 29.0987 33.3169 29.0987 35.4235C29.0987 35.7702 29.0721 36.2635 29.0187 36.9035L27.7387 36.8235C26.7254 34.7702 25.4187 33.3169 23.8187 32.4635C22.2454 31.5835 20.6587 31.1435 19.0587 31.1435C17.0054 31.1435 15.5387 31.4502 14.6587 32.0635C13.7787 32.6769 13.3387 33.5702 13.3387 34.7435C13.3387 35.9702 13.9521 36.9569 15.1787 37.7035C16.4054 38.4502 17.9787 38.8235 19.8987 38.8235C20.9654 38.8235 21.8187 38.7702 22.4587 38.6635C23.0987 38.5302 23.7654 38.3569 24.4587 38.1435C25.0187 37.9569 25.5121 37.8235 25.9387 37.7435C26.3654 37.6635 26.9121 37.6235 27.5787 37.6235C28.3254 37.6235 28.7921 37.6769 28.9787 37.7835C29.1921 37.8902 29.2987 38.1302 29.2987 38.5035C29.2987 38.7702 28.7521 39.1035 27.6587 39.5035C26.5654 39.9035 25.3387 40.2635 23.9787 40.5835C22.6187 40.9035 21.6854 41.0635 21.1787 41.0635Z" fill="white"/>
<path d="M32.3003 41.2235C31.927 41.3302 31.7136 41.3835 31.6603 41.3835C31.447 41.3835 31.2203 41.2769 30.9803 41.0635C30.1003 39.7569 29.4603 37.4769 29.0603 34.2235C28.687 30.9702 28.5003 28.1702 28.5003 25.8235C28.5003 25.4502 28.767 25.2635 29.3003 25.2635C30.1003 25.2635 30.5003 25.7035 30.5003 26.5835C30.5003 26.8235 30.487 27.0235 30.4603 27.1835C30.7003 26.6235 31.1536 26.0502 31.8203 25.4635C32.487 24.8769 33.2603 24.3835 34.1403 23.9835C35.0203 23.5835 35.9136 23.3835 36.8203 23.3835C39.6736 23.3835 41.7536 24.6502 43.0603 27.1835C44.367 29.6902 45.0203 32.8102 45.0203 36.5435C45.0203 37.8235 44.887 38.8502 44.6203 39.6235C44.3536 40.3702 43.9936 40.7435 43.5403 40.7435C43.0603 40.7435 42.8203 40.5969 42.8203 40.3035C43.007 38.8902 43.1003 37.5035 43.1003 36.1435C43.1003 32.7035 42.5003 30.1035 41.3003 28.3435C40.1003 26.5569 38.5136 25.6635 36.5403 25.6635C35.5803 25.6635 34.647 25.9035 33.7403 26.3835C32.8603 26.8635 32.1403 27.5302 31.5803 28.3835C31.047 29.2369 30.7803 30.2102 30.7803 31.3035C30.7803 32.5302 30.847 33.5969 30.9803 34.5035C31.1136 35.4102 31.327 36.5035 31.6203 37.7835C31.9403 39.0369 32.167 40.1835 32.3003 41.2235Z" fill="white"/>
<path d="M47.2269 41.1035C46.5602 41.1035 46.2269 40.7169 46.2269 39.9435C46.2269 39.7835 46.2802 39.4502 46.3868 38.9435C46.5202 38.4369 46.5869 37.8769 46.5869 37.2635V32.4235C46.4535 30.5302 46.1202 28.2235 45.5869 25.5035C45.0002 22.5169 44.5469 19.7435 44.2269 17.1835C44.3069 16.7302 44.5202 16.5035 44.8669 16.5035C45.3202 16.5035 45.8669 17.7035 46.5069 20.1035C47.1469 22.4769 47.8002 26.4102 48.4669 31.9035C49.0002 30.5702 49.7335 29.2235 50.6669 27.8635C51.6002 26.4769 52.5869 25.3302 53.6269 24.4235C54.6669 23.5169 55.5735 23.0635 56.3469 23.0635C56.6669 23.0635 56.8669 23.1569 56.9469 23.3435C57.0535 23.5302 57.0935 23.7969 57.0669 24.1435C55.4935 25.5302 53.9069 27.1435 52.3069 28.9835C50.7069 30.8235 49.9069 32.2502 49.9069 33.2635C49.9069 33.8769 50.4135 34.5835 51.4268 35.3835C52.4402 36.1569 53.6935 36.8502 55.1869 37.4635C56.6802 38.0502 58.0802 38.3835 59.3869 38.4635C59.8935 38.5435 60.1469 38.8502 60.1469 39.3835C60.1469 40.2902 59.2935 40.7435 57.5868 40.7435C56.2268 40.7435 54.7335 40.1969 53.1069 39.1035C51.5069 38.0102 50.1202 36.8635 48.9469 35.6635C48.8669 36.1169 48.8135 36.5169 48.7869 36.8635C48.7602 37.1835 48.7335 37.4635 48.7069 37.7035C48.6002 38.8769 48.4535 39.7435 48.2669 40.3035C48.1069 40.8369 47.7602 41.1035 47.2269 41.1035Z" fill="white"/>
<path d="M68.0459 41.0635C65.2726 41.0635 62.8592 40.5835 60.8059 39.6235C58.7792 38.6369 57.7659 36.9169 57.7659 34.4635C57.7659 33.5835 58.0326 32.7302 58.5659 31.9035C59.0992 31.0769 59.8859 30.4102 60.9259 29.9035C61.9659 29.3702 63.2326 29.1035 64.7259 29.1035C65.8726 29.1035 66.8459 29.1569 67.6459 29.2635C68.4459 29.3702 69.3659 29.6635 70.4059 30.1435C71.4459 30.6235 72.5259 31.3835 73.6459 32.4235C73.2193 30.5835 72.5792 28.9702 71.7259 27.5835C70.8726 26.1969 69.9126 25.1302 68.8459 24.3835C67.8059 23.6102 66.7792 23.2235 65.7659 23.2235C65.2859 23.2235 64.8326 23.3169 64.4059 23.5035C64.0059 23.6635 63.5126 23.9035 62.9259 24.2235C62.2593 24.6502 61.7659 24.8635 61.4459 24.8635C61.3126 24.8635 61.1926 24.8235 61.0859 24.7435C61.0059 24.6369 60.9659 24.5169 60.9659 24.3835C60.9659 23.3169 61.4326 22.4902 62.3659 21.9035C63.3259 21.3169 64.4859 21.0502 65.8459 21.1035C67.7126 21.2102 69.4193 22.0102 70.9659 23.5035C72.5126 24.9702 73.7259 26.7969 74.6059 28.9835C75.5126 31.1702 75.9659 33.3169 75.9659 35.4235C75.9659 35.7702 75.9392 36.2635 75.8859 36.9035L74.6059 36.8235C73.5926 34.7702 72.2859 33.3169 70.6859 32.4635C69.1126 31.5835 67.5259 31.1435 65.9259 31.1435C63.8726 31.1435 62.4059 31.4502 61.5259 32.0635C60.6459 32.6769 60.2059 33.5702 60.2059 34.7435C60.2059 35.9702 60.8192 36.9569 62.0459 37.7035C63.2726 38.4502 64.8459 38.8235 66.7659 38.8235C67.8326 38.8235 68.6859 38.7702 69.3259 38.6635C69.9659 38.5302 70.6326 38.3569 71.3259 38.1435C71.8859 37.9569 72.3792 37.8235 72.8059 37.7435C73.2326 37.6635 73.7792 37.6235 74.4459 37.6235C75.1926 37.6235 75.6592 37.6769 75.8459 37.7835C76.0592 37.8902 76.1659 38.1302 76.1659 38.5035C76.1659 38.7702 75.6193 39.1035 74.5259 39.5035C73.4326 39.9035 72.2059 40.2635 70.8459 40.5835C69.4859 40.9035 68.5526 41.0635 68.0459 41.0635Z" fill="white"/>
<path d="M8.97404 41.1435C6.30738 41.1435 4.29404 40.6902 2.93404 39.7835C1.57404 38.8502 0.894043 37.1702 0.894043 34.7435C1.42738 21.4102 2.28071 15.0502 3.45404 15.6635C4.04071 15.6902 4.33404 16.5969 4.33404 18.3835C4.33404 19.4769 4.14738 21.7835 3.77404 25.3035C3.29404 29.3569 3.05404 32.3302 3.05404 34.2235L3.09404 35.3835C3.09404 35.9702 3.26738 36.5569 3.61404 37.1435C3.98738 37.7302 4.45404 38.0502 5.01404 38.1035L12.854 38.7835C13.1474 38.8102 13.294 39.0902 13.294 39.6235C13.294 40.1035 13.174 40.4369 12.934 40.6235C12.7207 40.8102 12.334 40.9569 11.774 41.0635L8.97404 41.1435Z" stroke="white" stroke-width="0.7" mask="url(#path-3-outside-3_76_6)"/>
<path d="M21.1787 41.0635C18.4054 41.0635 15.9921 40.5835 13.9387 39.6235C11.9121 38.6369 10.8987 36.9169 10.8987 34.4635C10.8987 33.5835 11.1654 32.7302 11.6987 31.9035C12.2321 31.0769 13.0187 30.4102 14.0587 29.9035C15.0987 29.3702 16.3654 29.1035 17.8587 29.1035C19.0054 29.1035 19.9787 29.1569 20.7787 29.2635C21.5787 29.3702 22.4987 29.6635 23.5387 30.1435C24.5787 30.6235 25.6587 31.3835 26.7787 32.4235C26.3521 30.5835 25.7121 28.9702 24.8587 27.5835C24.0054 26.1969 23.0454 25.1302 21.9787 24.3835C20.9387 23.6102 19.9121 23.2235 18.8987 23.2235C18.4187 23.2235 17.9654 23.3169 17.5387 23.5035C17.1387 23.6635 16.6454 23.9035 16.0587 24.2235C15.3921 24.6502 14.8987 24.8635 14.5787 24.8635C14.4454 24.8635 14.3254 24.8235 14.2187 24.7435C14.1387 24.6369 14.0987 24.5169 14.0987 24.3835C14.0987 23.3169 14.5654 22.4902 15.4987 21.9035C16.4587 21.3169 17.6187 21.0502 18.9787 21.1035C20.8454 21.2102 22.5521 22.0102 24.0987 23.5035C25.6454 24.9702 26.8587 26.7969 27.7387 28.9835C28.6454 31.1702 29.0987 33.3169 29.0987 35.4235C29.0987 35.7702 29.0721 36.2635 29.0187 36.9035L27.7387 36.8235C26.7254 34.7702 25.4187 33.3169 23.8187 32.4635C22.2454 31.5835 20.6587 31.1435 19.0587 31.1435C17.0054 31.1435 15.5387 31.4502 14.6587 32.0635C13.7787 32.6769 13.3387 33.5702 13.3387 34.7435C13.3387 35.9702 13.9521 36.9569 15.1787 37.7035C16.4054 38.4502 17.9787 38.8235 19.8987 38.8235C20.9654 38.8235 21.8187 38.7702 22.4587 38.6635C23.0987 38.5302 23.7654 38.3569 24.4587 38.1435C25.0187 37.9569 25.5121 37.8235 25.9387 37.7435C26.3654 37.6635 26.9121 37.6235 27.5787 37.6235C28.3254 37.6235 28.7921 37.6769 28.9787 37.7835C29.1921 37.8902 29.2987 38.1302 29.2987 38.5035C29.2987 38.7702 28.7521 39.1035 27.6587 39.5035C26.5654 39.9035 25.3387 40.2635 23.9787 40.5835C22.6187 40.9035 21.6854 41.0635 21.1787 41.0635Z" stroke="white" stroke-width="0.7" mask="url(#path-3-outside-3_76_6)"/>
<path d="M32.3003 41.2235C31.927 41.3302 31.7136 41.3835 31.6603 41.3835C31.447 41.3835 31.2203 41.2769 30.9803 41.0635C30.1003 39.7569 29.4603 37.4769 29.0603 34.2235C28.687 30.9702 28.5003 28.1702 28.5003 25.8235C28.5003 25.4502 28.767 25.2635 29.3003 25.2635C30.1003 25.2635 30.5003 25.7035 30.5003 26.5835C30.5003 26.8235 30.487 27.0235 30.4603 27.1835C30.7003 26.6235 31.1536 26.0502 31.8203 25.4635C32.487 24.8769 33.2603 24.3835 34.1403 23.9835C35.0203 23.5835 35.9136 23.3835 36.8203 23.3835C39.6736 23.3835 41.7536 24.6502 43.0603 27.1835C44.367 29.6902 45.0203 32.8102 45.0203 36.5435C45.0203 37.8235 44.887 38.8502 44.6203 39.6235C44.3536 40.3702 43.9936 40.7435 43.5403 40.7435C43.0603 40.7435 42.8203 40.5969 42.8203 40.3035C43.007 38.8902 43.1003 37.5035 43.1003 36.1435C43.1003 32.7035 42.5003 30.1035 41.3003 28.3435C40.1003 26.5569 38.5136 25.6635 36.5403 25.6635C35.5803 25.6635 34.647 25.9035 33.7403 26.3835C32.8603 26.8635 32.1403 27.5302 31.5803 28.3835C31.047 29.2369 30.7803 30.2102 30.7803 31.3035C30.7803 32.5302 30.847 33.5969 30.9803 34.5035C31.1136 35.4102 31.327 36.5035 31.6203 37.7835C31.9403 39.0369 32.167 40.1835 32.3003 41.2235Z" stroke="white" stroke-width="0.7" mask="url(#path-3-outside-3_76_6)"/>
<path d="M47.2269 41.1035C46.5602 41.1035 46.2269 40.7169 46.2269 39.9435C46.2269 39.7835 46.2802 39.4502 46.3868 38.9435C46.5202 38.4369 46.5869 37.8769 46.5869 37.2635V32.4235C46.4535 30.5302 46.1202 28.2235 45.5869 25.5035C45.0002 22.5169 44.5469 19.7435 44.2269 17.1835C44.3069 16.7302 44.5202 16.5035 44.8669 16.5035C45.3202 16.5035 45.8669 17.7035 46.5069 20.1035C47.1469 22.4769 47.8002 26.4102 48.4669 31.9035C49.0002 30.5702 49.7335 29.2235 50.6669 27.8635C51.6002 26.4769 52.5869 25.3302 53.6269 24.4235C54.6669 23.5169 55.5735 23.0635 56.3469 23.0635C56.6669 23.0635 56.8669 23.1569 56.9469 23.3435C57.0535 23.5302 57.0935 23.7969 57.0669 24.1435C55.4935 25.5302 53.9069 27.1435 52.3069 28.9835C50.7069 30.8235 49.9069 32.2502 49.9069 33.2635C49.9069 33.8769 50.4135 34.5835 51.4268 35.3835C52.4402 36.1569 53.6935 36.8502 55.1869 37.4635C56.6802 38.0502 58.0802 38.3835 59.3869 38.4635C59.8935 38.5435 60.1469 38.8502 60.1469 39.3835C60.1469 40.2902 59.2935 40.7435 57.5868 40.7435C56.2268 40.7435 54.7335 40.1969 53.1069 39.1035C51.5069 38.0102 50.1202 36.8635 48.9469 35.6635C48.8669 36.1169 48.8135 36.5169 48.7869 36.8635C48.7602 37.1835 48.7335 37.4635 48.7069 37.7035C48.6002 38.8769 48.4535 39.7435 48.2669 40.3035C48.1069 40.8369 47.7602 41.1035 47.2269 41.1035Z" stroke="white" stroke-width="0.7" mask="url(#path-3-outside-3_76_6)"/>
<path d="M68.0459 41.0635C65.2726 41.0635 62.8592 40.5835 60.8059 39.6235C58.7792 38.6369 57.7659 36.9169 57.7659 34.4635C57.7659 33.5835 58.0326 32.7302 58.5659 31.9035C59.0992 31.0769 59.8859 30.4102 60.9259 29.9035C61.9659 29.3702 63.2326 29.1035 64.7259 29.1035C65.8726 29.1035 66.8459 29.1569 67.6459 29.2635C68.4459 29.3702 69.3659 29.6635 70.4059 30.1435C71.4459 30.6235 72.5259 31.3835 73.6459 32.4235C73.2193 30.5835 72.5792 28.9702 71.7259 27.5835C70.8726 26.1969 69.9126 25.1302 68.8459 24.3835C67.8059 23.6102 66.7792 23.2235 65.7659 23.2235C65.2859 23.2235 64.8326 23.3169 64.4059 23.5035C64.0059 23.6635 63.5126 23.9035 62.9259 24.2235C62.2593 24.6502 61.7659 24.8635 61.4459 24.8635C61.3126 24.8635 61.1926 24.8235 61.0859 24.7435C61.0059 24.6369 60.9659 24.5169 60.9659 24.3835C60.9659 23.3169 61.4326 22.4902 62.3659 21.9035C63.3259 21.3169 64.4859 21.0502 65.8459 21.1035C67.7126 21.2102 69.4193 22.0102 70.9659 23.5035C72.5126 24.9702 73.7259 26.7969 74.6059 28.9835C75.5126 31.1702 75.9659 33.3169 75.9659 35.4235C75.9659 35.7702 75.9392 36.2635 75.8859 36.9035L74.6059 36.8235C73.5926 34.7702 72.2859 33.3169 70.6859 32.4635C69.1126 31.5835 67.5259 31.1435 65.9259 31.1435C63.8726 31.1435 62.4059 31.4502 61.5259 32.0635C60.6459 32.6769 60.2059 33.5702 60.2059 34.7435C60.2059 35.9702 60.8192 36.9569 62.0459 37.7035C63.2726 38.4502 64.8459 38.8235 66.7659 38.8235C67.8326 38.8235 68.6859 38.7702 69.3259 38.6635C69.9659 38.5302 70.6326 38.3569 71.3259 38.1435C71.8859 37.9569 72.3792 37.8235 72.8059 37.7435C73.2326 37.6635 73.7792 37.6235 74.4459 37.6235C75.1926 37.6235 75.6592 37.6769 75.8459 37.7835C76.0592 37.8902 76.1659 38.1302 76.1659 38.5035C76.1659 38.7702 75.6193 39.1035 74.5259 39.5035C73.4326 39.9035 72.2059 40.2635 70.8459 40.5835C69.4859 40.9035 68.5526 41.0635 68.0459 41.0635Z" stroke="white" stroke-width="0.7" mask="url(#path-3-outside-3_76_6)"/>
</g>
<defs>
<clipPath id="clip0_76_6">
<rect width="80" height="42.3529" fill="white"/>
</clipPath>
</defs>
</svg>
