<svg width="60" height="60" viewBox="0 0 60 60" fill="none" xmlns="http://www.w3.org/2000/svg">
<path d="M23.9375 22.8125V37.1875C23.9375 37.9375 24.2604 38.5 24.9062 38.875C25.5521 39.25 26.1875 39.2292 26.8125 38.8125L38.125 31.5625C38.7083 31.1875 39 30.6667 39 30C39 29.3333 38.7083 28.8125 38.125 28.4375L26.8125 21.1875C26.1875 20.7708 25.5521 20.75 24.9062 21.125C24.2604 21.5 23.9375 22.0625 23.9375 22.8125ZM30 55C26.5833 55 23.3542 54.3437 20.3125 53.0312C17.2708 51.7187 14.6146 49.9271 12.3438 47.6562C10.0729 45.3854 8.28125 42.7292 6.96875 39.6875C5.65625 36.6458 5 33.4167 5 30C5 26.5833 5.65625 23.3542 6.96875 20.3125C8.28125 17.2708 10.0729 14.6146 12.3438 12.3438C14.6146 10.0729 17.2708 8.28125 20.3125 6.96875C23.3542 5.65625 26.5833 5 30 5C33.4167 5 36.6458 5.65625 39.6875 6.96875C42.7292 8.28125 45.3854 10.0729 47.6562 12.3438C49.9271 14.6146 51.7187 17.2708 53.0312 20.3125C54.3437 23.3542 55 26.5833 55 30C55 33.4167 54.3437 36.6458 53.0312 39.6875C51.7187 42.7292 49.9271 45.3854 47.6562 47.6562C45.3854 49.9271 42.7292 51.7187 39.6875 53.0312C36.6458 54.3437 33.4167 55 30 55Z" fill="white"/>
</svg>
