<svg width="40" height="40" viewBox="0 0 40 40" fill="none" xmlns="http://www.w3.org/2000/svg">
<path d="M19.9999 6.4C12.4887 6.4 6.3999 12.4888 6.3999 20C6.3999 27.5112 12.4887 33.6 19.9999 33.6C27.5111 33.6 33.5999 27.5112 33.5999 20C33.5999 12.4888 27.5111 6.4 19.9999 6.4ZM19.9999 7.2C27.0695 7.2 32.7999 12.9304 32.7999 20C32.7999 27.0696 27.0695 32.8 19.9999 32.8C12.9303 32.8 7.1999 27.0696 7.1999 20C7.1999 12.9304 12.9303 7.2 19.9999 7.2ZM25.589 14.6453C25.2751 14.609 24.8815 14.6941 24.4405 14.8531C23.6349 15.1435 13.3381 19.516 12.7437 19.7688C12.1797 20.0088 11.646 20.27 11.6452 20.6484C11.6452 20.914 11.8038 21.0636 12.239 21.2188C12.6918 21.3804 13.8326 21.7269 14.5062 21.9125C15.155 22.0917 15.8941 21.9349 16.3077 21.6781C16.7461 21.4053 21.8101 18.0171 22.1733 17.7203C22.5365 17.4235 22.8248 17.8048 22.528 18.1016C22.2304 18.3992 18.7552 21.7719 18.2968 22.2391C17.74 22.8063 18.1357 23.3945 18.5093 23.6297C18.9357 23.8985 22.0016 25.954 22.464 26.2844C22.9264 26.614 23.3945 26.7641 23.8233 26.7641C24.2521 26.7641 24.4769 26.199 24.6905 25.5438C24.9409 24.7766 26.1137 17.126 26.2577 15.6188C26.3009 15.1628 26.1573 14.8586 25.8749 14.7234C25.7895 14.6824 25.6936 14.6574 25.589 14.6453Z" fill="white"/>
</svg>
