<svg width="40" height="40" viewBox="0 0 40 40" fill="none" xmlns="http://www.w3.org/2000/svg">
<path d="M19.9999 6.4C12.4887 6.4 6.3999 12.4888 6.3999 20C6.3999 22.5016 7.08713 24.838 8.26553 26.8516L6.51709 33.3781L13.3468 31.8547C15.3148 32.9611 17.5815 33.6 19.9999 33.6C27.5111 33.6 33.5999 27.5112 33.5999 20C33.5999 12.4888 27.5111 6.4 19.9999 6.4ZM19.9999 7.2C27.0415 7.2 32.7999 12.9584 32.7999 20C32.7999 27.0416 27.0415 32.8 19.9999 32.8C17.6023 32.8 15.3925 32.1582 13.4765 31.0078L7.63584 32.3063L9.1249 26.7375C7.8969 24.7775 7.1999 22.484 7.1999 20C7.1999 12.9584 12.9583 7.2 19.9999 7.2ZM15.0405 13.2391C14.7989 13.2391 14.4108 13.3275 14.0796 13.6875C13.754 14.0475 12.8265 14.9132 12.8265 16.6828C12.8265 18.446 14.109 20.1554 14.289 20.3906C14.469 20.6322 16.7713 24.3741 20.4233 25.8125C23.4505 27.0045 24.0695 26.7679 24.7327 26.7063C25.3895 26.6495 26.8562 25.8399 27.1546 25.0031C27.453 24.1655 27.4528 23.4458 27.3608 23.2938C27.2696 23.1482 27.0349 23.0597 26.6749 22.8797C26.3149 22.6997 24.5499 21.8293 24.2187 21.7109C23.8923 21.5925 23.6507 21.5306 23.4155 21.8906C23.1739 22.2506 22.4901 23.0601 22.2765 23.2953C22.0693 23.5369 21.8615 23.5644 21.5015 23.3844C21.1415 23.2044 19.9828 22.8279 18.6124 21.6031C17.546 20.6535 16.8267 19.4787 16.6187 19.1203C16.4107 18.7619 16.5965 18.5644 16.7765 18.3844C16.9397 18.2276 17.1355 17.9689 17.3155 17.7609C17.4891 17.5473 17.5518 17.401 17.6702 17.1594C17.7942 16.9242 17.7317 16.7113 17.6421 16.5313C17.5525 16.3513 16.8558 14.5768 16.5358 13.8688C16.267 13.2736 15.9849 13.2564 15.7265 13.25C15.5169 13.2388 15.2757 13.2391 15.0405 13.2391Z" fill="white"/>
</svg>
